<?xml version="1.0" encoding="utf-8"?>
<svg viewBox="0 0 445 123" width="445" height="123" xmlns="http://www.w3.org/2000/svg">
  <g id="g10">
    <g id="g112">
      <g id="g114">
        <g id="g120">
          <g id="g122">
            <g id="g124" transform="matrix(1, 0, 0, 1, 0.30999759, 122.63410187)">
              <g id="g130" transform="scale(1,-1)">
                <g id="g132">
                  <g id="g134"/>
                </g>
                <g id="g136">
                  <g id="g138">
                    <path d="m 37.432,122.29 v 0 C 12.602,114.34 0,93.177 0,60.535 V 11.084 c 0,0 4.1258,31.817 37.432,40.971 z" style="fill:#006632;fill-opacity:1;fill-rule:nonzero;stroke:none" id="path144"/>
                  </g>
                </g>
                <g id="g146">
                  <g id="g148">
                    <path d="m 40.208,112.99 v 0 c 0,0 18.903,7.13 45.833,8.7 0,0 -0.075,-22.51 -0.75,-40.82 C 82.966,23.09 31.356,52.806 6.0762,22.04 11.177,35.397 28.43,44.852 40.208,47.178 Z" style="fill:#e62f2e;fill-opacity:1;fill-rule:nonzero;stroke:none" id="path154"/>
                  </g>
                </g>
                <g id="g156">
                  <g id="g158">
                    <path d="m 33.231,30.444 v 0 c 0,0 -27.4549,-2.176 -29.7803,-17.859 C 1.6503,0.35341 33.231,-0.02179 33.231,-0.02179 Z" style="fill:#006632;fill-opacity:1;fill-rule:nonzero;stroke:none" id="path164"/>
                  </g>
                </g>
                <g id="g166">
                  <g id="g168">
                    <path d="m 1.1252,76.518 v 0 C 6.8263,89.8 16.428,103.38 37.432,111.86 v 10.43 C 16.878,115.69 4.7259,100.08 1.1252,76.518 Z" style="fill:#67b43c;fill-opacity:1;fill-rule:nonzero;stroke:none" id="path174"/>
                  </g>
                </g>
                <g id="g176">
                  <g id="g178">
                    <path d="m 38.107,52.431 v 0 -0.226 -0.15 c 0,0 0,-0.075 -0.075,-0.075 h -0.525 c 0,0 -0.075,0.075 -0.075,0.075 v 0.376 0.675 1.426 4.277 c 0.225,0 0.45,-0.075 0.675,-0.075 v -3.602 -0.675 -1.426 z m -0.9,0.075 v 0 0 c -7.876,0.45 -14.703,4.652 -18.904,10.73 0,0.075 -0.075,0.15 -0.075,0.15 v 0 c 0.226,0.15 0.376,0.225 0.601,0.3 4.05,-6.003 10.652,-10.055 18.303,-10.58 z M 16.953,65.112 v 0 c -0.075,0 -0.15,0.075 -0.225,0.075 0,0.075 -0.225,0.525 -0.225,0.525 -0.075,0 -0.075,0 -0.075,0 0.075,0.151 0.075,0.301 0.225,0.376 -1.5,2.926 -2.4,6.153 -2.625,9.53 0.225,0.15 0.45,0.225 0.675,0.225 0.15,-3.302 1.05,-6.454 2.4,-9.305 0.375,0.225 0.75,0.45 1.275,0.675 -1.35,2.702 -2.175,5.778 -2.325,8.93 0.3,0 0.525,0 0.675,0 0.15,-3.077 0.975,-6.078 2.251,-8.705 0.825,0.3 1.725,0.676 2.625,0.901 0.825,0.225 1.725,0.45 2.626,0.675 0.075,-0.225 0.15,-0.45 0.225,-0.675 -0.901,-0.15 -1.801,-0.375 -2.701,-0.676 -0.075,0 -0.075,0 -0.15,0 0,0 0,0 0,0 -0.075,-0.075 -0.075,-0.075 -0.15,-0.075 0,0 0,0 0,0 -0.075,0 -0.075,0 -0.15,-0.075 0,0 0,0 0,0 -0.075,0 -0.15,0 -0.15,0 0,0 0,0 -0.075,0 -0.075,-0.075 -0.15,-0.075 -0.225,-0.15 h -0.075 c 0,0 -0.075,0 -0.15,0 v 0 c 0,-0.075 -0.075,-0.075 -0.15,-0.075 v 0 c -0.075,0 -0.075,0 -0.15,-0.075 -0.075,0 -0.225,-0.075 -0.3,-0.075 v 0 c -0.225,-0.15 -0.525,-0.225 -0.75,-0.3 -0.225,-0.075 -0.375,-0.15 -0.6,-0.3 0,0 -0.075,0 -0.075,0 v 0 c 0,0 -0.075,0 -0.075,-0.075 -0.075,0 -0.075,0 -0.075,0 -0.151,-0.075 -0.301,-0.15 -0.451,-0.225 0,0 0,0 -0.075,-0.075 v 0 c 0,0 -0.075,0 -0.075,0 v 0 c 0,0 -0.075,0 -0.075,-0.075 -0.075,-0.075 -0.225,-0.075 -0.3,-0.15 -0.225,-0.151 -0.45,-0.301 -0.525,-0.451 0,-0.075 0,-0.075 0,-0.075 0,0 0,0 0,0 v 0 c -0.075,-0.075 -0.075,-0.15 -0.075,-0.225 0,0 0,-0.075 0.075,-0.075 z m 1.125,-1.576 v 0 c -0.075,-0.075 -0.15,-0.225 0,-0.3 -0.075,0 -0.225,0.075 -0.225,0.15 -0.075,0.15 -0.3,0.45 -0.3,0.45 v 0.075 c 0,0.076 0.075,0.151 0.15,0.226 0,0 0,0.075 0,0.075 0,0 0,0 0,0 0.15,0.075 0.3,0.225 0.525,0.375 0,0 0,0.075 0,0.075 h 0.075 c 0,0 0,0 0,0 0,0 0,0 0,0 0.075,0.075 0.151,0.075 0.151,0.075 v 0 c 0,0 0.075,0.075 0.075,0.075 v 0 c 0,0 0.075,0 0.075,0 v 0.075 c 0.075,0 0.075,0 0.15,0.075 v 0 c 0,0 0.075,0 0.075,0 v 0 c 0.075,0.075 0.225,0.15 0.375,0.225 0.075,0 0.15,0.075 0.225,0.075 0.225,0.075 0.375,0.225 0.6,0.3 0.075,0 0.15,0.075 0.225,0.075 0.075,0 0.075,0 0.15,0.075 0,0 0,0 0,0 0.075,0 0.15,0 0.225,0.075 v 0 c 0.075,0 0.075,0 0.15,0 0,0 0,0 0,0 0.075,0.076 0.15,0.076 0.225,0.151 h 0.075 c 0,0 0.075,0 0.075,0 0,0 0,0 0,0 0.15,0.075 0.225,0.075 0.3,0.075 0,0.075 0,0.075 0,0.075 0.075,0 0.075,0 0.15,0 0,0 0,0 0,0 0.075,0 0.15,0.075 0.3,0.075 0,0 0,0 0,0 0.075,0 0.075,0.075 0.075,0.075 h 0.075 c 0.075,0 0.075,0 0.15,0.075 0.975,0.225 1.951,0.45 2.926,0.675 0.075,-0.225 0.225,-0.375 0.375,-0.6 -1.125,-0.225 -2.176,-0.45 -3.151,-0.751 -1.575,-0.45 -3.75,-1.35 -4.276,-2.101 z m -4.05,12.457 v 0 0 c 0,-0.075 -0.075,-0.15 -0.075,-0.15 -0.075,-0.075 -0.225,-0.3 -0.075,-0.451 -0.075,0.076 -0.225,0.151 -0.225,0.226 v 0.675 c 0,0 0,0 0,0 0.075,0.15 0.15,0.3 0.3,0.375 0,0.075 0,0.075 0.075,0.075 0.15,0.15 0.375,0.3 0.6,0.45 0,0 0.075,0 0.075,0.075 0,0 0,0 0,0 0.075,0 0.075,0 0.075,0 0,0 0,0 0.075,0.075 0,0 0,0 0,0 0,0 0,0 0.075,0 0,0 0,0 0,0 0,0.076 0.075,0.076 0.075,0.076 0,0 0,0 0,0 0.075,0 0.075,0 0.075,0.075 v 0 c 0.075,0 0.15,0 0.225,0.075 0,0 0,0 0,0 0.075,0 0.075,0 0.075,0.075 0.075,0 0.075,0 0.075,0 0,0 0,0 0.075,0 0,0 0,0 0,0 0,0.075 0.075,0.075 0.075,0.075 0,0 0,0 0,0 0.075,0 0.075,0 0.15,0 0,0.075 0,0.075 0,0.075 0.075,0 0.15,0 0.225,0.075 0,0 0,0 0,0 0.225,0.075 0.525,0.225 0.75,0.3 0,0 0.075,0 0.075,0 0,0 0.075,0 0.075,0 0,0.075 0.075,0.075 0.075,0.075 0,0 0,0 0.075,0 0,0 0.075,0.075 0.15,0.075 0,0 0.075,0 0.15,0.075 0,0 0,0 0,0 0.075,0 0.075,0 0.15,0 0,0 0,0 0,0.075 0.075,0 0.075,0 0.15,0 0,0 0,0 0.075,0 0,0 0,0 0.075,0.075 0,0 0,0 0.075,0 0,0 0,0 0.075,0 0,0 0.075,0 0.075,0.075 0,0 0.075,0 0.075,0 0,0 0.075,0 0.075,0 0,0 0.075,0.075 0.075,0.075 0.075,0 0.075,0 0.075,0 0.075,0 0.075,0 0.075,0 0.076,0 0.076,0 0.076,0 0.075,0.075 0.075,0.075 0.15,0.075 0,0 0,0 0.075,0 0,0 0.075,0 0.075,0.075 0,0 0.075,0 0.075,0 0,0 0.075,0 0.075,0 0,0 0.075,0 0.075,0 0.075,0.075 0.075,0.075 0.075,0.075 0.075,0 0.075,0 0.075,0 0.075,0 0.15,0 0.15,0.075 0,0 0.075,0 0.075,0 0,0 0.075,0 0.15,0 0,0 0,0 0,0 0.075,0.075 0.15,0.075 0.225,0.075 v 0 c 0.075,0 0.075,0.075 0.15,0.075 0,0 0.075,0 0.075,0 0,0 0.075,0 0.075,0 0.075,0 0.075,0.075 0.075,0.075 0.075,0 0.075,0 0.15,0 0,0 0.075,0 0.075,0 0,0 0.075,0 0.075,0.076 0.075,0 0.075,0 0.075,0 0.075,0 0.075,0 0.15,0 0,0 0.075,0 0.075,0 0,0 0.075,0.075 0.075,0.075 0.075,0 0.075,0 0.075,0 0.075,0 0.075,0 0.15,0 0,0 0.075,0 0.075,0.075 0.075,0 0.075,0 0.15,0 0,0 0,0 0.075,0 0,0 0.075,0 0.075,0.075 0.075,0 0.075,0 0.075,0 0.075,0 0.075,0 0.15,0 0,0 0,0 0.075,0 0,0 0.075,0.075 0.075,0.075 0.075,0 0.075,0 0.15,0 0,0 0.075,0 0.075,0 0,0 0.075,0 0.075,0 0.075,0.075 0.075,0.075 0.15,0.075 0,0 0.075,0 0.075,0 0.075,0 0.15,0 0.225,0 0.225,0.075 0.525,0.15 0.825,0.225 v -0.751 c -0.3,0 -0.525,-0.075 -0.75,-0.075 -2.025,-0.45 -4.201,-0.975 -5.926,-1.65 -0.15,-0.076 -0.375,-0.151 -0.6,-0.226 -0.525,-0.225 -1.05,-0.525 -1.35,-0.75 -0.225,-0.15 -0.45,-0.225 -0.6,-0.375 0,-0.075 0,-0.075 -0.075,-0.075 z m 49.959,0.3 v 0 0 -0.675 c 0,-0.075 -0.15,-0.15 -0.225,-0.226 0.15,0.151 0,0.376 -0.075,0.451 0,0 -0.075,0.075 -0.075,0.15 0,0 -0.075,0 -0.075,0 0,0.075 0,0.075 0,0.075 -0.075,0 -0.075,0.075 -0.15,0.075 -0.075,0.075 -0.225,0.225 -0.45,0.3 -0.375,0.225 -0.825,0.45 -1.35,0.675 -0.075,0.075 -0.075,0.075 -0.15,0.075 -0.15,0.075 -0.3,0.15 -0.45,0.226 0,0 0,0 0,0 -1.726,0.675 -3.901,1.2 -5.927,1.65 -0.225,0 -0.45,0.075 -0.675,0.075 v 0.751 c 0.225,-0.075 0.525,-0.15 0.75,-0.225 0.075,0 0.151,0 0.226,0 0,0 0.075,0 0.075,0 0.075,0 0.075,0 0.15,-0.075 0,0 0.075,0 0.075,0 0,0 0.075,0 0.15,0 0,0 0,0 0.075,0 0,0 0.075,-0.075 0.075,-0.075 0.075,0 0.075,0 0.075,0 0.075,0 0.075,0 0.15,0 0,0 0,0 0.075,0 0,-0.075 0.075,-0.075 0.075,-0.075 0.075,0 0.075,0 0.075,0 0.075,0 0.075,0 0.15,0 0,-0.075 0.075,-0.075 0.075,-0.075 0.075,0 0.075,0 0.075,0 0.075,0 0.075,0 0.15,0 0,0 0.075,-0.075 0.075,-0.075 0,0 0.075,0 0.075,0 0.075,0 0.075,0 0.15,0 0,0 0,0 0.075,0 0,-0.076 0.075,-0.076 0.075,-0.076 0,0 0.075,0 0.075,0 0.075,0 0.075,0 0.15,0 0,0 0,-0.075 0.075,-0.075 0,0 0.075,0 0.15,0 0,0 0,0 0,0 0.075,0 0.15,-0.075 0.225,-0.075 v 0 c 0.075,0 0.075,0 0.15,-0.075 0,0 0,0 0.075,0 0,0 0.075,0 0.075,0 0.075,0 0.075,0 0.075,0 0.075,-0.075 0.075,-0.075 0.15,-0.075 0,0 0,0 0,0 0.075,0 0.075,0 0.15,-0.075 0,0 0,0 0.075,0 0,0 0.075,0 0.075,0 0,0 0.075,0 0.075,0 0,-0.075 0.075,-0.075 0.075,-0.075 0.075,0 0.075,0 0.075,0 0.075,0 0.075,0 0.15,-0.075 0,0 0,0 0.075,0 0,0 0,0 0.075,0 0,0 0,0 0.075,0 0,0 0.075,-0.075 0.075,-0.075 0,0 0.075,0 0.075,0 0,0 0.075,0 0.075,0 0.075,-0.075 0.075,-0.075 0.075,-0.075 0.075,0 0.075,0 0.15,0 0,0 0,0 0,0 0.075,-0.075 0.075,-0.075 0.15,-0.075 0,0 0,0 0,0 0.15,0 0.225,-0.075 0.3,-0.075 0,0 0.075,0 0.075,-0.075 0,0 0.075,0 0.075,0 0.076,0 0.076,0 0.076,0 0,0 0.075,-0.075 0.075,-0.075 0.075,0 0.075,0 0.075,0 0,0 0.075,0 0.075,-0.075 0,0 0.075,0 0.075,0 0,0 0.075,0 0.075,0 0.225,-0.075 0.525,-0.225 0.675,-0.3 0.075,0 0.075,0 0.075,0 0,0 0.075,0 0.075,0 0,-0.075 0,-0.075 0.075,-0.075 0,0 0,0 0.075,0 0,0 0,0 0,0 0,-0.075 0.075,-0.075 0.075,-0.075 0.075,0 0.075,0 0.075,0 0,0 0.075,0 0.075,-0.075 0,0 0,0 0,0 0.075,0 0.075,0 0.075,0 0,0 0,0 0.075,0 0,0 0,-0.075 0,-0.075 0.075,0 0.075,0 0.075,0 0,0 0,0 0.075,-0.075 0,0 0,0 0,0 0.075,0 0.075,0 0.075,0 0,0 0,0 0,0 0.075,0 0.075,-0.075 0.15,-0.075 0,0 0,0 0,0 0,0 0.075,0 0.075,0 0,-0.076 0,-0.076 0,-0.076 0,0 0.075,0 0.075,0 0,0 0,0 0,0 0.075,0 0.075,-0.075 0.075,-0.075 0,0 0,0 0,0 0.075,0 0.075,0 0.075,0 0,0 0,0 0.075,-0.075 0.225,-0.15 0.45,-0.3 0.6,-0.45 0.075,0 0.075,0 0.075,0 0.15,-0.15 0.225,-0.3 0.3,-0.45 z m 0,2.176 v 0 0 -0.675 c 0,-0.075 -0.075,-0.15 -0.15,-0.15 0.075,0.075 0,0.225 -0.15,0.375 0,0 -0.075,0.075 -0.075,0.075 0,0 0,0 0,0 -0.225,0.225 -0.375,0.375 -0.675,0.525 v 0 c 0,0 0,0 -0.075,0 0,0 0,0.075 0,0.075 0,0 -0.075,0 -0.075,0 0,0 0,0 0,0 0,0 -0.075,0 -0.075,0.075 v 0 c 0,0 -0.075,0 -0.075,0 v 0 c 0,0 -0.075,0.075 -0.075,0.075 v 0 c -0.075,0 -0.075,0 -0.075,0 v 0.075 c -0.075,0 -0.075,0 -0.075,0 0,0 0,0 -0.075,0 0,0 0,0 -0.075,0.075 0,0 0,0 0,0 0,0 0,0 -0.075,0 v 0 c 0,0 -0.075,0.075 -0.075,0.075 v 0 c 0,0 -0.075,0 -0.075,0.075 v 0 c -0.075,0 -0.075,0 -0.15,0 v 0 c 0,0 -0.075,0.075 -0.075,0.075 v 0 c 0,0 -0.075,0 -0.075,0 0,0 0,0 0,0 -0.075,0 -0.075,0.076 -0.15,0.076 0,0 0,0 0,0 -0.225,0.075 -0.45,0.225 -0.75,0.3 -0.075,0 -0.075,0 -0.15,0.075 0,0 0,0 0,0 -0.075,0 -0.15,0 -0.15,0 0,0 0,0 0,0.075 -0.076,0 -0.151,0 -0.151,0 h -0.075 c 0,0 -0.075,0.075 -0.15,0.075 v 0 c 0,0 -0.075,0.075 -0.15,0.075 -0.075,0 -0.075,0 -0.15,0.075 v 0 c -0.15,0 -0.225,0.075 -0.375,0.075 v 0 c -0.075,0 -0.075,0.075 -0.15,0.075 0,0 0,0 0,0 -0.075,0 -0.15,0 -0.15,0 h -0.075 c 0,0.075 -0.075,0.075 -0.15,0.075 v 0 c -0.075,0 -0.075,0.075 -0.15,0.075 v 0 c -0.075,0 -0.15,0 -0.225,0.075 v 0 c -0.075,0 -0.225,0.075 -0.375,0.075 v 0 c 0,0 -0.075,0 -0.15,0.075 v 0 c -0.075,0 -0.15,0 -0.225,0 v 0 c 0,0.075 -0.075,0.075 -0.15,0.075 -0.075,0 -0.15,0 -0.15,0.075 0,0 -0.075,0 -0.075,0 0,0 -0.075,0 -0.15,0 v 0 c -0.075,0.075 -0.15,0.075 -0.15,0.075 h -0.075 c 0,0 -0.075,0 -0.15,0 v 0.075 c -0.075,0 -0.15,0 -0.225,0 v 0 c -0.075,0 -0.075,0.075 -0.15,0.075 v 0 c -0.075,0 -0.15,0 -0.225,0 v 0 c -0.075,0 -0.075,0.075 -0.15,0.075 0,0 0,0 0,0 -0.075,0 -0.15,0 -0.225,0 0,0 0,0.075 0,0.075 -0.075,0 -0.075,0 -0.15,0 v 0 c -0.075,0 -0.15,0 -0.225,0 v 0 c -0.075,0.075 -0.075,0.075 -0.15,0.075 0,0 0,0 0,0 -0.075,0 -0.15,0 -0.226,0 v 0 c -0.075,0.075 -0.15,0.075 -0.15,0.075 -0.225,0.076 -0.45,0.076 -0.675,0.151 v 0.675 c 0.225,-0.075 0.525,-0.075 0.75,-0.15 2.176,-0.45 4.051,-0.976 5.627,-1.501 -0.376,2.401 -1.051,4.652 -2.101,6.679 -0.225,0.45 -0.45,0.9 -0.675,1.35 0,0 0,0 0,0 0,0 -0.075,0 -0.075,0.075 0.15,0 0.375,0 0.75,0 1.425,-2.551 2.401,-5.327 2.776,-8.329 0.525,-0.225 1.05,-0.525 1.425,-0.75 -0.225,3.226 -1.125,6.228 -2.551,8.929 0.301,-0.075 0.526,-0.15 0.826,-0.225 v 0 c 0,-0.075 0.075,-0.15 0.075,-0.225 1.35,-2.701 2.175,-5.703 2.325,-8.93 0.225,-0.15 0.375,-0.3 0.45,-0.45 z m -0.375,-2.851 v 0 c -0.075,-0.075 -0.075,-0.226 -0.075,-0.376 -0.225,-3.151 -1.125,-6.228 -2.475,-8.929 0.15,-0.375 0.225,-0.676 0.15,-0.901 0,0 -0.225,-0.3 -0.375,-0.45 -0.075,-0.15 -0.075,-0.225 -0.3,-0.225 0.15,0.075 0.375,0.3 0.225,0.675 0,0.075 0,0.15 0,0.225 v 0 c -0.075,0.075 -0.15,0.15 -0.225,0.301 -0.151,0.225 -0.376,0.525 -0.601,0.825 h -0.075 c 0,0.075 0,0.075 0,0.075 v 0 c -0.075,0.075 -0.075,0.075 -0.075,0.075 v 0 c -0.3,0.375 -0.675,0.675 -1.05,1.051 0,0 0,0 0,0 0,0.075 -0.075,0.075 -0.075,0.15 v 0 c -0.15,0.075 -0.225,0.225 -0.375,0.3 0,0 0,0 0,0 -0.075,0.075 -0.075,0.075 -0.15,0.15 0,0 0,0 0,0 -0.15,0.075 -0.225,0.225 -0.375,0.3 0,0 0,0 0,0.075 -0.075,0 -0.075,0.075 -0.15,0.075 0,0 0,0 0,0 -0.15,0.15 -0.3,0.225 -0.45,0.375 0,0 0,0 0,0 0,0 -0.075,0.075 -0.075,0.075 -0.075,0 -0.075,0 -0.075,0.075 0,0 -0.075,0 -0.15,0.075 v 0 c -0.075,0.076 -0.15,0.151 -0.225,0.226 -0.075,0 -0.075,0 -0.075,0.075 0,0 -0.075,0 -0.075,0.075 -0.075,0 -0.075,0 -0.075,0 0,0.075 -0.075,0.075 -0.15,0.15 0,0 0,0 0,0 0,0 -0.075,0.075 -0.15,0.075 0,0.075 -0.075,0.075 -0.15,0.15 0,0 0,0 0,0 -0.075,0.075 -0.075,0.075 -0.15,0.15 0,0 0,0 0,0 -0.075,0 -0.075,0.075 -0.15,0.075 0,0 0,0 0,0 -0.075,0.075 -0.15,0.075 -0.15,0.15 0,0 0,0 0,0 -0.075,0.075 -0.15,0.075 -0.15,0.15 0,0 -0.075,0 -0.075,0 0,0 -0.076,0.075 -0.076,0.075 -0.075,0 -0.075,0.075 -0.075,0.075 0,0 -0.075,0 -0.075,0.075 -0.075,0 -0.075,0 -0.075,0 -0.075,0.075 -0.075,0.075 -0.15,0.15 0,0 0,0 0,0 -0.075,0.075 -0.075,0.075 -0.15,0.075 0,0.075 -0.075,0.075 -0.075,0.075 0,0 -0.075,0.075 -0.075,0.075 0,0 -0.075,0 -0.075,0.075 0,0 -0.075,0 -0.075,0.076 -0.075,0 -0.075,0 -0.075,0 -0.075,0.075 -0.075,0.075 -0.15,0.15 0.075,0.225 0.075,0.525 0.075,0.825 2.026,-1.501 3.751,-2.851 4.951,-4.052 0.75,1.801 1.275,3.752 1.576,5.703 0,0.075 0,0.15 0,0.15 v 0 c 0,0.075 0,0.15 0.075,0.225 v 0.075 c 0,0.075 0,0.15 0,0.225 0,0 0,0.075 0,0.15 0,0 0,0.075 0,0.15 0,0 0,0.075 0.075,0.15 v 0.076 c 0,0.075 0,0.075 0,0.15 0,0.075 0,0.075 0,0.15 0,0 0,0.075 0,0.075 0,0.075 0,0.225 0,0.3 0.15,0 0.375,0 0.675,0 -0.15,-2.852 -0.825,-5.553 -1.876,-8.029 0.375,-0.451 0.75,-0.826 0.976,-1.201 1.275,2.777 2.1,5.778 2.25,9.005 0.225,-0.075 0.45,-0.15 0.675,-0.3 z M 58.286,61.81 v 0 c -0.075,-0.075 -0.15,-0.15 -0.15,-0.15 l -0.075,-0.075 c 0,0 -0.075,-0.075 -0.15,-0.15 -4.276,-5.177 -10.577,-8.554 -17.703,-9.004 v -0.376 c 0,0 0,0 0,0 0,0 0,-0.075 -0.075,-0.075 h -0.525 c 0,0 -0.075,0.075 -0.075,0.075 v 0.15 0.226 0.6 1.426 0.675 3.602 c 0.225,0 0.45,0.075 0.675,0.075 v -3.677 c 5.551,0.375 10.502,2.701 14.177,6.378 0,0 0,0 0,0 0.075,0.075 0.15,0.15 0.225,0.15 0,0.075 0,0.075 0,0.075 0.45,0.451 0.901,0.901 1.276,1.426 0.225,-0.075 0.45,-0.15 0.675,-0.225 -3.901,-4.803 -9.752,-8.029 -16.353,-8.404 v -1.426 c 7.126,0.375 13.427,3.902 17.628,9.155 0.225,-0.15 0.375,-0.301 0.45,-0.451 z m 0.675,0.676 v 0 c 0.075,-0.15 0.075,-0.3 0,-0.375 0,0 -0.225,-0.376 -0.3,-0.451 -0.075,-0.075 -0.225,-0.225 -0.45,-0.3 0.075,0.075 0.45,0.075 0.225,0.676 0,0.075 0,0.15 -0.075,0.225 -0.075,0.075 -0.15,0.225 -0.225,0.375 v 0 c -0.225,0.3 -0.6,0.675 -0.975,1.125 -0.15,0.075 -0.3,0.226 -0.45,0.376 -0.975,0.9 -2.326,2.026 -3.976,3.301 0.15,0.15 0.225,0.376 0.3,0.601 1.95,-1.426 3.601,-2.777 4.651,-3.752 0.075,-0.075 0.15,-0.15 0.225,-0.225 0,0 0,0 0,-0.075 0,0 0,0 0.075,0 0,-0.076 0,-0.076 0,-0.076 0,0 0,0 0.075,0 0,0 0,-0.075 0,-0.075 0,0 0,0 0,0 0.075,0 0.075,0 0.075,-0.075 0,0 0,0 0,0 0,0 0,0 0,-0.075 0.075,0 0.075,0 0.075,0 0,0 0,0 0,0 0.075,-0.075 0.075,-0.075 0.075,-0.075 v 0 c 0.075,-0.075 0.075,-0.15 0.15,-0.15 v 0 c 0,-0.075 0,-0.075 0,-0.075 0,0 0,0 0.075,0 0,0 0,-0.075 0,-0.075 0,0 0,0 0,0 0.225,-0.225 0.3,-0.45 0.375,-0.6 0,-0.075 0,-0.075 0.075,-0.075 0,0 0,0 0,0 0,0 0,0 0,0 0,-0.075 0,-0.075 0,-0.075 0,0 0,-0.075 0,-0.075 z M 37.432,100.01 v 0 1.35 0.67 0.38 c 0,0.07 0.075,0.07 0.075,0.07 h 0.525 c 0.075,0 0.075,0 0.075,-0.07 v -0.23 -0.15 -0.6 -1.42 -0.68 -4.352 H 37.432 Z M 13.653,77.794 v 0 0.675 c 0,0 0,0 0,0 0.075,0.15 0.225,0.3 0.45,0.45 0.15,2.627 0.75,5.178 1.65,7.579 0,0 0,0 0,0 0.075,0 0.075,0.075 0.075,0.075 0,0.075 0,0.075 0.075,0.15 v 0 c 0,0.075 0.075,0.15 0.075,0.225 0,0.076 0,0.076 0.075,0.076 0.075,0 0.3,-0.076 0.6,-0.226 -1.05,-2.251 -1.65,-4.802 -1.875,-7.428 0.375,0.225 0.9,0.525 1.425,0.75 0.3,2.101 0.825,4.052 1.65,5.928 0.15,-0.15 0.3,-0.3 0.45,-0.525 -0.15,-0.3 -0.225,-0.676 -0.375,-0.976 0,0 0,0 0,-0.075 -0.45,-1.275 -0.825,-2.701 -1.05,-4.127 1.576,0.525 3.451,1.051 5.626,1.501 0.225,0.075 0.525,0.075 0.825,0.15 v -0.675 c -0.3,-0.075 -0.525,-0.075 -0.75,-0.151 0,0 -0.075,0 -0.15,-0.075 v 0 c -0.075,0 -0.15,0 -0.15,0 -0.075,0 -0.075,0 -0.075,0 -0.075,0 -0.075,0 -0.15,-0.075 v 0 c -0.075,0 -0.15,0 -0.225,0 v 0 c -0.075,0 -0.075,0 -0.15,0 0,0 0,-0.075 0,-0.075 -0.075,0 -0.15,0 -0.225,0 0,0 0,0 0,0 -0.075,0 -0.075,-0.075 -0.15,-0.075 v 0 c -0.075,0 -0.15,0 -0.225,0 v 0 c -0.075,0 -0.075,-0.075 -0.15,-0.075 v 0 c -0.075,0 -0.15,0 -0.225,0 v 0 c -0.075,-0.075 -0.15,-0.075 -0.15,-0.075 -0.075,0 -0.15,0 -0.225,-0.075 v 0 c -0.075,0 -0.075,0 -0.15,0 0,0 0,0 0,0 -0.075,-0.075 -0.15,-0.075 -0.225,-0.075 -0.075,0 -0.075,0 -0.15,-0.075 v 0 c -0.075,0 -0.15,0 -0.225,0 v 0 c -0.075,0 -0.075,-0.075 -0.15,-0.075 v 0 c -0.15,0 -0.3,-0.075 -0.375,-0.075 -0.075,-0.075 -0.15,-0.075 -0.225,-0.075 v 0 c 0,0 -0.075,-0.075 -0.15,-0.075 v 0 c -0.075,0 -0.15,0 -0.15,-0.075 -0.075,0 -0.151,0 -0.226,0 v 0 c -0.075,0 -0.075,-0.075 -0.15,-0.075 v 0 c -0.15,0 -0.225,-0.075 -0.375,-0.075 v 0 c -0.075,-0.075 -0.075,-0.075 -0.15,-0.075 v 0 c -0.075,0 -0.075,-0.075 -0.15,-0.075 v 0 c -0.15,-0.075 -0.225,-0.075 -0.375,-0.075 0,-0.075 0,-0.075 0,-0.075 0,0 -0.075,0 -0.15,0 v 0 c 0,0 -0.075,-0.075 -0.15,-0.075 -0.225,-0.075 -0.45,-0.15 -0.675,-0.3 0,0 0,0 -0.075,0 0,0 0,0 0,0 -0.075,0 -0.075,-0.076 -0.075,-0.076 0,0 -0.075,0 -0.075,0 0,0 -0.075,0 -0.15,-0.075 v 0 c -0.075,0 -0.075,0 -0.15,0 v 0 c 0,-0.075 0,-0.075 -0.075,-0.075 0,0 -0.075,-0.075 -0.075,-0.075 0,0 -0.075,0 -0.075,0 v 0 c -0.075,-0.075 -0.075,-0.075 -0.15,-0.075 v 0 c 0,0 -0.075,-0.075 -0.15,-0.075 v 0 c 0,0 -0.075,-0.075 -0.075,-0.075 v 0 c -0.075,0 -0.15,-0.075 -0.15,-0.075 -0.075,0 -0.075,0 -0.075,-0.075 v 0 c -0.075,0 -0.075,0 -0.075,0 -0.3,-0.15 -0.45,-0.3 -0.675,-0.525 0,0 0,0 0,0 -0.15,-0.15 -0.375,-0.3 -0.225,-0.45 -0.075,0 -0.15,0.075 -0.15,0.15 z m 23.779,24.236 v 0 c -0.075,0 -0.075,0 -0.15,0 0.075,0 0.075,0 0.15,0 z M 60.612,89.2 v 0 c 0.225,-0.15 0.45,-0.225 0.525,-0.376 0,0 0.3,-0.45 0.375,-0.6 0.075,-0.15 -0.075,-0.3 -0.225,-0.3 0.15,0 0.225,0.15 -0.075,0.3 0,0 -0.075,0.075 -0.15,0.075 -0.075,0 -0.075,0 -0.075,0 -0.676,0.375 -1.651,0.751 -2.926,1.126 v 0 c -0.3,0.075 -0.6,0.15 -0.9,0.225 v 0 c -0.825,0.225 -1.8,0.45 -2.776,0.675 v 0.676 c 0.075,-0.075 0.225,-0.075 0.3,-0.075 h 0.075 c 0,0 0.075,-0.075 0.075,-0.075 0,0 0,0 0.075,0 0,0 0,0 0.075,0 0,0 0,0 0,0 0.075,0 0.075,0 0.15,0 0,0 0,0 0,0 0,-0.076 0.075,-0.076 0.075,-0.076 0.076,0 0.076,0 0.076,0 0,0 0.075,0 0.075,0 0,0 0.075,0 0.075,0 0,0 0,-0.075 0.075,-0.075 0,0 0.075,0 0.075,0 0.075,0 0.075,0 0.075,0 0,0 0.075,0 0.075,0 0,0 0.075,0 0.075,-0.075 0,0 0.075,0 0.075,0 0,0 0,0 0,0 0.075,0 0.075,0 0.15,0 0,0 0,0 0,0 0.075,0 0.075,-0.075 0.075,-0.075 0.075,0 0.075,0 0.075,0 0,0 0.075,0 0.075,0 0,0 0,0 0.075,0 0,0 0.075,0 0.075,0 v 0 c 0.075,-0.075 0.075,-0.075 0.15,-0.075 0.3,-0.075 0.675,-0.15 0.975,-0.225 0.075,-0.075 0.075,-0.075 0.15,-0.075 0.075,0 0.15,0 0.3,-0.075 0.15,0 0.225,-0.075 0.375,-0.075 0.45,-0.15 0.9,-0.3 1.2,-0.45 0.45,-0.15 0.75,-0.225 0.976,-0.375 0.075,0 0.075,0 0.075,0 z m -21.079,12.83 v 0 0.15 0.23 c 0,0.07 0,0.07 0.075,0.07 0,0 0,0 0,0 h 0.525 c 0.075,0 0.075,0 0.075,-0.07 v -0.38 c 7.876,-0.45 14.702,-4.501 18.978,-10.579 0.3,-0.15 0.525,-0.3 0.75,-0.45 0,0 0,0 0,0 0,0 0.375,-0.676 0.45,-0.751 0.151,-0.15 0.075,-0.3 -0.075,-0.375 0.075,0.075 0.15,0.15 -0.15,0.375 -0.075,0 -0.15,0.075 -0.225,0.15 0,0 0,0 -0.075,0.075 0,0 0,0 -0.075,0 -0.3,0.225 -0.675,0.376 -1.125,0.601 -0.075,0 -0.075,0 -0.15,0 0,0 0,0 0,0 0,0.075 -0.075,0.075 -0.075,0.075 0,0 -0.075,0 -0.075,0 0,0 -0.075,0.075 -0.075,0.075 -0.075,0 -0.075,0 -0.15,0 0,0 0,0 0,0 -0.075,0.075 -0.075,0.075 -0.15,0.075 -0.075,0 -0.075,0.075 -0.15,0.075 0,0 0,0 0,0 -0.075,0 -0.075,0 -0.15,0 0,0 0,0 0,0.075 -0.075,0 -0.15,0 -0.3,0.075 0,0 0,0 0,0 -0.075,0 -0.075,0 -0.15,0 v 0 c -0.075,0.075 -0.075,0.075 -0.15,0.075 v 0 c -0.075,0 -0.075,0 -0.15,0.075 0,0 0,0 0,0 -0.075,0 -0.075,0 -0.15,0 -0.075,0 -0.075,0.075 -0.15,0.075 v 0 c -0.075,0 -0.15,0 -0.15,0 0,0.075 0,0.075 -0.075,0.075 -0.375,0.075 -0.75,0.225 -1.201,0.3 -0.075,0 -0.15,0.075 -0.225,0.075 -0.075,0 -0.15,0 -0.225,0 -0.075,0.075 -0.15,0.075 -0.225,0.075 v 0 c -0.075,0 -0.15,0.075 -0.15,0.075 v 0 0.676 0.9 c 0.375,-0.375 0.75,-0.825 1.126,-1.2 0.9,-0.226 1.8,-0.526 2.475,-0.751 -4.126,5.403 -10.502,9.004 -17.778,9.384 v -1.35 c 4.876,-0.305 9.376,-2.181 12.902,-5.032 h -1.05 c -3.301,2.476 -7.427,4.052 -11.852,4.352 v -4.352 h -0.675 v 4.352 0.68 1.42 z M 23.104,61.66 v 0 c 3.601,-3.602 8.327,-6.003 13.653,-6.453 l 0.15,-0.675 c -6.826,0.6 -12.752,4.127 -16.503,9.379 0.375,0 0.675,-0.075 0.825,-0.075 0.525,-0.75 1.2,-1.425 1.8,-2.176 0.075,0 0.075,0 0.075,0 z m -7.501,25.063 v 0 c -0.075,0.225 0,0.376 0,0.451 l 0.375,0.6 c 0,0 0,0 0,0 0.075,0.075 0.225,0.15 0.375,0.15 v 0 h 0.075 c 0,0 0.075,0 0.15,0 0.15,0 0.3,0 0.525,-0.075 0.375,-0.075 0.9,-0.15 1.426,-0.3 0.15,-0.075 0.375,-0.15 0.6,-0.225 0.075,0 0.15,0 0.225,-0.075 0,0 0.075,0 0.15,0 0,0 0.075,-0.075 0.075,-0.075 0,0 0.075,0 0.075,0 h 0.075 c 0,0 0.075,-0.075 0.075,-0.075 v 0 c 0.075,0 0.075,0 0.15,0 v 0 c 0,0 0.075,-0.075 0.075,-0.075 0,0 0,0 0,0 0.075,0 0.075,0 0.15,0 v 0 c 0,-0.076 0.075,-0.076 0.075,-0.076 h 0.075 c 0,0 0.075,0 0.075,-0.075 0,0 0,0 0,0 0.075,0 0.075,0 0.15,0 v 0 c 0,-0.075 0.075,-0.075 0.075,-0.075 0,0 0,0 0.075,0 0,0 0,0 0.075,0 0,-0.075 0,-0.075 0,-0.075 0.075,0 0.075,0 0.15,0 0,0 0,0 0,0 0,0 0.075,-0.075 0.075,-0.075 0,0 0.075,0 0.075,0 0,0 0.075,0 0.075,-0.075 0,0 0,0 0,0 0.075,0 0.075,0 0.15,0 0,0 0,0 0,0 0.075,-0.075 0.075,-0.075 0.15,-0.075 0,0 0,0 0,0 0,0 0.075,0 0.075,-0.075 0,0 0.075,0 0.075,0 0,0 0.075,0 0.075,0 0,0 0,-0.075 0.075,-0.075 0,0 0.075,0 0.075,0 0,0 0,0 0,0 0.075,0 0.075,-0.075 0.15,-0.075 0,0 0,0 0,0 0.075,0 0.075,0 0.15,-0.075 0,0 0,0 0,0 0.075,0 0.075,0 0.075,0 0.075,0 0.075,-0.075 0.075,-0.075 0,0 0.075,0 0.075,0 0,0 0.075,0 0.075,-0.075 0,0 0.075,0 0.075,0 0,0 0.075,0 0.075,0 0,0 0.075,-0.075 0.075,-0.075 0,0 0,0 0.075,0 0,0 0,0 0.075,-0.075 0,0 0,0 0.075,0 0,0 0.075,0 0.075,-0.075 0,0 0,0 0.075,0 0,0 0.075,0 0.075,0 0,-0.075 0,-0.075 0.075,-0.075 0,0 0.075,0 0.15,0 v -0.751 c -1.8,0.751 -3.3,1.351 -4.5,1.726 -0.225,0.075 -0.375,0.15 -0.601,0.225 v 0 c -0.525,0.151 -1.05,0.226 -1.425,0.301 0,0 0,0 -0.075,0 v 0 c 0,0 0,0 -0.075,0 v 0 0 c 0,0 -0.075,0 -0.075,0 v 0 0 c -0.075,0 -0.075,0 -0.075,0 v 0 h -0.075 v 0 0 h -0.075 c -0.075,0 -0.15,0 -0.225,0 -0.225,0 -0.45,-0.075 -0.525,-0.526 z m 21.229,12.532 v 0 C 32.631,98.88 28.73,97.379 25.58,94.978 h -1.05 c 3.45,2.776 7.726,4.577 12.377,4.952 z M 19.354,91.601 v 0 c 0,-0.075 0,-0.075 0,-0.075 0,0 0,0 0,0.075 z m -1.426,-0.675 v 0 0 c 0,0 0,0 0,0 v 0 c 0,0 0,0 0.075,0 v 0 0 c 0,0 0,0 0,0 0,0 0,0 0.075,0 v 0 c 0,0 0,0 0.075,0 0.075,0.075 0.225,0.075 0.376,0.075 v 0 c 0.15,0 0.225,0 0.375,0 0,-0.075 0.075,-0.075 0.075,-0.075 v 0 c 0.075,0 0.15,0 0.3,0 0,0 0,0 0.075,0 0.075,-0.075 0.15,-0.075 0.225,-0.075 0.075,0 0.075,0 0.15,0 v 0 c 0.075,-0.076 0.15,-0.076 0.3,-0.076 0.3,-0.075 0.675,-0.225 1.05,-0.3 0,0 0.075,-0.075 0.075,-0.075 0,0 0.075,0 0.075,0 0,0 0.075,0 0.075,0 0,0 0,0 0,-0.075 0.15,0 0.225,-0.075 0.375,-0.075 0,0 0,0 0.075,0 0,0 0.075,-0.075 0.075,-0.075 0,0 0,0 0.075,0 0,0 0.075,0 0.075,0 0.075,-0.075 0.075,-0.075 0.15,-0.075 0,0 0.075,0 0.075,0 0,-0.075 0.075,-0.075 0.075,-0.075 0,0 0.075,0 0.075,0 0.075,0 0.075,-0.075 0.075,-0.075 0.075,0 0.075,0 0.075,0 0.075,0 0.15,-0.075 0.225,-0.075 0,0 0,0 0,0 0.075,-0.075 0.075,-0.075 0.15,-0.075 0,0 0,0 0.075,0 0,0 0.075,-0.075 0.075,-0.075 0.075,0 0.075,0 0.075,0 0.075,0 0.15,-0.075 0.225,-0.075 v 0.675 0.751 c -0.225,-0.075 -0.45,-0.15 -0.675,-0.15 -0.15,-0.075 -0.3,-0.075 -0.525,-0.151 0,0 -0.075,0.076 -0.15,0.076 0,0 -0.075,0 -0.075,0 0,0 -0.075,0.075 -0.075,0.075 0,0 -0.075,0 -0.075,0 0,0 -0.075,0 -0.075,0 0,0.075 -0.075,0.075 -0.075,0.075 0,0 -0.075,0 -0.075,0 -0.375,0.15 -0.75,0.225 -1.125,0.375 v 0 c -0.075,0 -0.075,0 -0.15,0 0,0 0,0 0,0 0,0 -0.075,0 -0.075,0 0,0 0,0 0,0 -0.075,0.075 -0.075,0.075 -0.15,0.075 0,0 0,0 0,0 0,0 0,0 0,0 0.075,0 0.075,0 0.15,0 0,0 0,0 0,0 0.075,0.075 0.15,0.075 0.15,0.075 0,0 0,0 0,0 0.075,0 0.15,0.075 0.15,0.075 0.15,0 0.225,0.075 0.375,0.075 v 0 c 0,0 0.075,0 0.15,0.075 v 0 c 0.675,0.15 1.425,0.375 2.325,0.6 v 0.676 c 0,0 -0.075,0 -0.075,0 0,0 0.075,0 0.075,0 v 0.9 c -0.45,-0.45 -0.825,-0.825 -1.2,-1.2 -0.975,-0.301 -1.8,-0.526 -2.55,-0.826 4.126,5.328 10.427,8.929 17.478,9.459 l 0.15,0.67 c -7.726,-0.52 -14.403,-4.501 -18.603,-10.429 -0.376,0 -0.601,-0.075 -0.826,-0.225 0,0 0,0 0,0 L 17.403,90.7 c 0,0 0,-0.15 0,-0.3 0,0.225 0.15,0.451 0.525,0.526 z" style="fill:#f7a412;fill-opacity:1;fill-rule:nonzero;stroke:none" id="path184"/>
                  </g>
                </g>
                <g id="g186">
                  <g id="g188">
                    <path d="m 16.203,80.12 v 0 c 0.3,2.101 0.825,4.052 1.65,5.928 -0.45,0.375 -0.9,0.6 -1.2,0.75 -1.05,-2.251 -1.65,-4.802 -1.875,-7.428 0.375,0.225 0.9,0.525 1.425,0.75 z M 59.711,68.114 v 0 c 0.375,-0.451 0.75,-0.826 0.976,-1.201 1.275,2.777 2.1,5.778 2.25,9.005 -0.525,0.15 -0.975,0.225 -1.35,0.225 -0.15,-2.852 -0.825,-5.553 -1.876,-8.029 z M 18.378,67.213 v 0 c -1.35,2.702 -2.175,5.778 -2.325,8.93 -0.375,0 -0.825,-0.075 -1.35,-0.3 0.15,-3.302 1.05,-6.454 2.4,-9.305 0.375,0.225 0.75,0.45 1.275,0.675 z m 21.83,-12.681 v 0 -1.426 c 7.126,0.375 13.427,3.902 17.628,9.155 -0.3,0.225 -0.75,0.45 -1.275,0.675 -3.901,-4.803 -9.752,-8.029 -16.353,-8.404 z m -19.804,9.379 v 0 c -0.45,0 -0.975,-0.075 -1.575,-0.3 4.05,-5.928 10.652,-9.98 18.303,-10.505 l -0.225,1.426 c -6.826,0.6 -12.752,4.127 -16.503,9.379 z m 19.804,36.099 v 0 c 4.876,-0.305 9.376,-2.181 12.902,-5.032 h 1.275 v -1.051 c 0.375,-0.375 0.75,-0.825 1.126,-1.2 0.9,-0.226 1.8,-0.526 2.475,-0.751 -4.126,5.403 -10.502,9.004 -17.778,9.384 z M 60.311,88.299 v 0 c -0.675,0.075 -1.2,0.15 -1.65,0.15 1.425,-2.551 2.401,-5.327 2.776,-8.329 0.525,-0.225 1.05,-0.525 1.425,-0.75 -0.225,3.226 -1.125,6.228 -2.551,8.929 z m -40.732,3.602 v 0 c 4.126,5.328 10.427,8.929 17.478,9.459 l -0.15,-1.43 C 32.256,99.555 27.98,97.754 24.53,94.978 h -1.201 v -1.051 c -0.45,-0.45 -0.825,-0.825 -1.2,-1.2 -0.975,-0.301 -1.8,-0.526 -2.55,-0.826 z" style="fill:#fbe900;fill-opacity:1;fill-rule:nonzero;stroke:none" id="path194"/>
                  </g>
                </g>
                <g id="g196">
                  <g id="g198">
                    <path d="m 59.936,90.4 v 0 c -1.125,0.751 -3.375,1.426 -5.551,1.951 v -1.35 C 57.086,90.4 59.561,89.725 60.612,89.2 Z" style="fill:#fbe900;fill-opacity:1;fill-rule:nonzero;stroke:none" id="path204"/>
                  </g>
                </g>
                <g id="g206">
                  <g id="g208">
                    <path d="m 22.129,90.775 v 0 c 0.375,0.076 0.75,0.226 1.2,0.301 v 1.2 c -1.275,-0.225 -2.4,-0.525 -3.3,-0.825 0.6,-0.15 1.35,-0.375 2.1,-0.676 z" style="fill:#fbe900;fill-opacity:1;fill-rule:nonzero;stroke:none" id="path214"/>
                  </g>
                </g>
                <g id="g216">
                  <g id="g218">
                    <path d="m 23.329,81.321 v 0 c -0.3,-0.075 -0.525,-0.075 -0.75,-0.151 -3.45,-0.675 -7.426,-1.875 -8.551,-3.076 0,0 -0.075,-0.075 -0.075,-0.075 v -1.351 c 0.975,0.976 4.35,2.176 8.551,3.002 0.225,0.075 0.525,0.15 0.825,0.225 z" style="fill:#fbe900;fill-opacity:1;fill-rule:evenodd;stroke:none" id="path224"/>
                  </g>
                </g>
                <g id="g226">
                  <g id="g228">
                    <path d="m 63.612,78.094 v 0 c -1.125,1.201 -5.101,2.401 -8.552,3.076 -0.225,0.076 -0.45,0.076 -0.675,0.151 v -1.426 c 0.225,-0.075 0.525,-0.15 0.75,-0.225 4.201,-0.826 7.577,-1.951 8.552,-2.927 v 1.276 c -0.075,0 -0.075,0.075 -0.075,0.075 z" style="fill:#fbe900;fill-opacity:1;fill-rule:evenodd;stroke:none" id="path234"/>
                  </g>
                </g>
                <g id="g236">
                  <g id="g238">
                    <path d="m 24.455,68.339 v 0 c -0.901,-0.15 -1.801,-0.375 -2.701,-0.676 -2.1,-0.6 -4.351,-1.5 -4.801,-2.251 0,0 0,0 0,0 l 0.75,-1.275 c 0.45,0.6 2.026,1.425 4.501,2.176 0.975,0.225 1.951,0.45 2.926,0.675 -0.225,0.45 -0.45,0.901 -0.675,1.351 z" style="fill:#fbe900;fill-opacity:1;fill-rule:evenodd;stroke:none" id="path244"/>
                  </g>
                </g>
                <g id="g246">
                  <g id="g248">
                    <path d="m 39.533,102.18 v 0 h -1.426 v -7.202 h 1.426 z" style="fill:#fbe900;fill-opacity:1;fill-rule:evenodd;stroke:none" id="path254"/>
                  </g>
                </g>
                <g id="g256">
                  <g id="g258">
                    <path d="m 38.782,58.734 v 0 c -0.225,0 -0.45,0 -0.675,0 v -6.529 h 1.426 v 6.529 c -0.226,0 -0.451,0 -0.751,0 z" style="fill:#fbe900;fill-opacity:1;fill-rule:evenodd;stroke:none" id="path264"/>
                  </g>
                </g>
                <g id="g266">
                  <g id="g268">
                    <path d="m 60.537,65.938 v 0 c -0.901,1.5 -3.451,3.601 -6.377,5.853 -0.225,-1.276 -0.6,-2.552 -1.125,-3.752 3.301,-2.402 5.626,-4.428 5.926,-5.478 l 1.801,2.851 c 0,0.15 -0.075,0.3 -0.225,0.526 z" style="fill:#fbe900;fill-opacity:1;fill-rule:evenodd;stroke:none" id="path274"/>
                  </g>
                </g>
                <g id="g276">
                  <g id="g278">
                    <path d="m 23.329,89.65 v 0 c -2.175,0.9 -3.825,1.351 -4.8,1.351 v 0 c -0.301,0 -0.451,-0.075 -0.601,-0.075 l -1.575,-3.002 c 0.075,0 0.15,0 0.225,0 1.125,0 3.601,-0.825 6.751,-2.176 z" style="fill:#fbe900;fill-opacity:1;fill-rule:evenodd;stroke:none" id="path284"/>
                  </g>
                </g>
                <g id="g286">
                  <g id="g288">
                    <path d="m 58.511,61.96 v 0 0 c 0,0 -0.075,0 -0.075,0.076 0,0 0,0 0,0 0,0.075 0,0.15 -0.075,0.225 -0.225,0.375 -0.75,1.125 -1.65,1.876 0,0.075 -0.075,0.075 -0.075,0.075 0,0 0,0 0,0 v 0 c -0.9,0.9 -2.251,1.951 -3.901,3.226 -0.75,-1.575 -1.725,-2.926 -2.926,-4.127 -1.425,-1.426 -3.075,-2.551 -4.95,-3.302 2.4,0.151 4.65,0.451 6.526,0.901 0.675,0.075 1.725,0.3 3,0.6 0.525,0.526 1.051,1.051 1.501,1.651 1.35,-0.375 2.175,-1.05 2.4,-1.351 -0.15,-0.15 -0.225,-0.225 -0.375,-0.45 h 0.15 c 0.075,0 0.15,0 0.15,0.075 0.15,0 0.375,0.075 0.3,0.525 0,0 0,0 0,0 z m 5.326,13.733 v 0 0 h -0.075 v 0 c 0,0 0,0 0,0.075 0,0 0,0 0,0 v 0 0 0 0 0 0 0 0 0 0 0 0 c 0,0 0,0.075 -0.075,0.075 0,0 0,0 0,0 0,0 -0.075,0.075 -0.075,0.075 -0.075,0.075 -0.075,0.15 -0.15,0.225 -0.45,0.3 -1.125,0.75 -2.025,1.05 -0.15,0.075 -0.3,0.15 -0.45,0.226 v -0.151 -0.15 c -2.251,-0.675 -4.951,-1.2 -6.602,-1.5 v -1.351 c 0,-0.45 -0.075,-0.901 -0.075,-1.351 2.551,0.375 4.726,0.901 6.452,1.351 0.075,0.6 0.15,1.276 0.15,1.876 0.525,0.075 1.575,0.075 2.7,-0.525 -0.075,-0.075 -0.075,-0.226 -0.075,-0.376 0.15,0.075 0.225,0.15 0.3,0.226 0,0.075 0,0.15 0,0.225 0,0 0,0 0,0 z M 60.386,64.737 v 0 h 0.075 c 0,0 0.076,0 0.151,0 0.075,0.075 0.225,0.3 0.15,0.675 z m -0.075,25.138 v 0 c 0.075,0.075 0.075,0.15 -0.15,0.375 -0.075,0 -0.15,0.075 -0.225,0.15 l 0.3,-0.525 c 0.075,0 0.075,0 0.075,0 z m 3.526,-12.231 v 0 c 0.075,0.075 0,0.225 -0.15,0.375 v -0.375 c 0.075,0 0.15,0 0.15,0 z m -9.452,11.18 v 0 -2.851 c 1.651,0.375 3.151,0.75 4.276,1.051 -0.225,0.45 -0.45,0.975 -0.75,1.425 0.375,-0.075 1.65,0.075 3.226,-0.375 v 0 c 0,-0.075 0.075,-0.15 0.075,-0.225 0.075,0 0.075,0.075 0.075,0.075 0,0 0,0 0.075,0 0.075,0 0.15,0.15 -0.15,0.3 0,0 -0.075,0.075 -0.15,0.075 -0.901,0.45 -2.176,0.901 -3.901,1.351 0,-0.075 0.075,-0.075 0.075,-0.15 -0.825,-0.225 -1.8,-0.45 -2.851,-0.676 z" style="fill:#000000;fill-opacity:1;fill-rule:nonzero;stroke:none" id="path294"/>
                  </g>
                </g>
                <g id="g296">
                  <g id="g298">
                    <path d="m 16.953,65.412 v 0 c -0.075,-0.075 -0.075,-0.15 -0.075,-0.225 0,0 0,-0.075 0.075,-0.075 0,0 0,0 0,0 0,0 0.075,0 0.15,0 z M 27.83,63.311 v 0 c 0,0.075 -0.075,0.15 -0.15,0.15 -2.325,0.375 -4.726,0.826 -7.201,1.426 0,0 -0.075,0 -0.075,0.075 -1.125,-0.45 -2.026,-0.9 -2.326,-1.426 -0.075,-0.075 -0.15,-0.225 0,-0.3 v 0 c 0.15,-0.075 0.3,-0.15 0.376,-0.15 -0.076,0.075 -0.151,0.225 -0.226,0.3 1.351,0.676 2.701,0.525 3.001,0.45 0.525,-0.75 1.2,-1.5 1.875,-2.176 2.701,-0.675 5.927,-1.275 9.527,-1.575 -1.8,0.75 -3.375,1.875 -4.801,3.226 z m 9.377,-10.805 v 0 c 0.075,0 0.15,-0.075 0.225,-0.075 v 2.701 c -0.225,0 -0.45,0.075 -0.675,0.075 z M 23.329,74.267 v 0 1.351 c -1.725,0.3 -4.425,0.825 -6.601,1.5 v 0.15 0.151 c -0.3,-0.076 -0.525,-0.226 -0.75,-0.301 -0.225,-0.075 -0.45,-0.15 -0.6,-0.225 0,-0.075 0,-0.075 0,-0.075 0,0 0,0 -0.075,0 -0.45,-0.225 -0.9,-0.525 -1.2,-0.75 0,-0.075 -0.075,-0.075 -0.075,-0.15 0,0 -0.075,-0.075 -0.075,-0.075 0,0 0,0 0,0 l -0.075,-0.075 v 0 0 0 c 0,0 0,0 0,0 v 0 0 0 0 0 0 0 0 0 -0.075 0 0 h -0.075 v 0 0 0 0 c 0,0 0,0 0,0 v -0.075 0 0 0 0 c 0,0 0,0 0,0 v 0 0 0 -0.075 0 0 0 0 0 0 -0.075 0 0 0 0 0 0 0 c 0,0 0,0 0,0 v -0.076 c 0.075,0 0.15,-0.075 0.3,-0.15 0,0.15 0,0.301 -0.075,0.376 1.2,0.6 2.25,0.6 2.7,0.525 0,-0.6 0.075,-1.276 0.15,-1.876 1.726,-0.45 3.976,-0.976 6.451,-1.351 0,0.45 0,0.901 0,1.351 z m -7.576,12.081 v 0 c 0.075,0.225 0.15,0.45 0.3,0.676 0.3,-0.076 1.425,-0.451 2.25,-1.501 -0.225,-0.45 -0.375,-0.901 -0.525,-1.351 0.901,-0.75 2.026,-1.576 3.376,-2.626 0.45,0.15 0.9,0.225 1.35,0.3 0.225,0.075 0.525,0.075 0.825,0.15 v 3.001 c -1.725,0.751 -3.15,1.351 -4.35,1.726 v 0 c 0,0 -0.075,0 -0.075,0 0,0 0,0 -0.075,0 v 0 c -1.051,0.376 -1.951,0.526 -2.476,0.526 -0.075,0 -0.15,0 -0.225,0 0,0 0,0 0,0 h -0.075 v 0 c 0,0 0,0 -0.075,0 v 0 c -0.15,-0.075 -0.3,-0.15 -0.375,-0.526 0,0.075 0,0.075 0,0.075 0,0 0,0 0,-0.075 0,-0.075 0.075,-0.225 0.15,-0.375 z m 21.679,15.682 v 0 c -0.075,0 -0.15,0 -0.225,0 l -0.45,-2.775 c 0.225,0.075 0.45,0.075 0.675,0.075 z M 13.953,77.644 v 0 0.375 c -0.15,-0.15 -0.225,-0.3 -0.15,-0.375 0,0 0.075,0 0.15,0 z M 17.478,90.1 v 0 c 0,0.15 -0.075,0.225 -0.075,0.3 0,0.225 0.15,0.451 0.525,0.526 z" style="fill:#000000;fill-opacity:1;fill-rule:nonzero;stroke:none" id="path304"/>
                  </g>
                </g>
                <g id="g306">
                  <g id="g308">
                    <path d="m 38.782,58.509 v 0 c -9.451,0 -15.753,7.954 -15.753,15.383 V 95.053 H 54.46 V 73.892 c 0,-7.429 -6.301,-15.383 -15.678,-15.383 z" style="fill:#ffffff;fill-opacity:1;fill-rule:nonzero;stroke:none" id="path314"/>
                  </g>
                </g>
                <g id="g316">
                  <g id="g318">
                    <path d="m 47.484,73.892 v 0 c 0,-3.602 -3.301,-8.405 -8.702,-8.405 -5.476,0 -8.701,4.803 -8.701,8.405 V 88.074 H 47.484 Z M 24.08,94.002 v 0 -20.11 c 0,-6.904 5.926,-14.333 14.702,-14.333 8.702,0 14.628,7.429 14.628,14.333 v 20.11 z" style="fill:#e62f2e;fill-opacity:1;fill-rule:nonzero;stroke:none" id="path324"/>
                  </g>
                </g>
                <g id="g326">
                  <g id="g328">
                    <path d="m 26.255,89.425 v 0 c 0.075,1.125 0.9,1.35 0.9,1.35 0,0 0.825,-0.225 0.9,-1.35 z m 2.776,0 v 0 0 L 28.88,90.7 c 0.151,0.075 0.301,0.226 0.301,0.376 0,0.15 -0.15,0.3 -0.376,0.3 v 0 l -0.075,0.6 h 0.075 0.075 c 0.076,0 0.076,0.075 0.076,0.075 v 0.45 h -0.151 v -0.225 h -0.3 v 0.225 H 28.28 v -0.225 h -0.3 v 0.225 h -0.15 v -0.45 c 0,0 0,-0.075 0.075,-0.075 h 0.075 0.075 l -0.075,-0.6 h -0.375 l -0.075,1.275 h 0.15 c 0,0 0.075,0.076 0.075,0.076 v 0.45 H 27.53 v -0.225 h -0.3 v 0.225 h -0.15 v -0.225 h -0.3 v 0.225 h -0.225 v -0.45 c 0,0 0.075,0 0.075,-0.076 h 0.15 L 26.705,91.376 H 26.33 l -0.075,0.6 h 0.075 0.075 c 0,0 0.075,0.075 0.075,0.075 v 0.45 H 26.255 V 92.276 H 26.03 v 0.225 h -0.225 v -0.225 h -0.3 v 0.225 h -0.15 v -0.45 c 0,0 0,-0.075 0.075,-0.075 h 0.075 v 0 -0.6 H 25.43 c -0.15,0 -0.3,-0.15 -0.3,-0.3 0,-0.15 0.15,-0.301 0.3,-0.301 l -0.15,-1.35 v 0 c -0.225,0 -0.375,-0.15 -0.375,-0.375 0,-0.15 0.15,-0.301 0.375,-0.301 h 3.751 c 0.225,0 0.375,0.151 0.375,0.301 0,0.225 -0.15,0.375 -0.375,0.375 z" style="fill:#fbe900;fill-opacity:1;fill-rule:evenodd;stroke:none" id="path334"/>
                  </g>
                </g>
                <g id="g336">
                  <g id="g338">
                    <path d="m 37.882,89.425 v 0 c 0.075,1.125 0.9,1.35 0.9,1.35 0,0 0.901,-0.225 0.901,-1.35 z m 2.851,0 v 0 h -0.075 l -0.15,1.275 c 0.225,0.075 0.3,0.226 0.3,0.376 0,0.15 -0.15,0.3 -0.3,0.3 h -0.075 v 0.6 0 h 0.15 c 0,0 0,0.075 0,0.075 v 0.45 h -0.15 v -0.225 h -0.3 v 0.225 h -0.225 v -0.225 h -0.225 v 0.225 h -0.226 v -0.45 c 0,0 0.076,-0.075 0.076,-0.075 h 0.075 0.075 l -0.075,-0.6 h -0.301 l -0.075,1.275 h 0.075 c 0,0 0.075,0.076 0.075,0.076 v 0.45 h -0.225 v -0.225 h -0.225 v 0.225 h -0.225 v -0.225 h -0.3 v 0.225 h -0.15 v -0.45 c 0,0 0,0 0.075,-0.076 h 0.075 l -0.075,-1.275 h -0.375 l -0.075,0.6 h 0.075 0.075 c 0.075,0 0.075,0.075 0.075,0.075 v 0.45 h -0.225 v -0.225 h -0.225 v 0.225 h -0.225 v -0.225 h -0.3 v 0.225 h -0.15 v -0.45 c 0,0 0,-0.075 0.075,-0.075 h 0.075 0.075 l -0.075,-0.6 v 0 c -0.225,0 -0.375,-0.15 -0.375,-0.3 0,-0.15 0.15,-0.301 0.3,-0.301 l -0.075,-1.35 h -0.075 c -0.225,0 -0.3,-0.15 -0.3,-0.375 0,-0.15 0.075,-0.301 0.3,-0.301 h 3.826 c 0.15,0 0.3,0.151 0.3,0.301 0,0.225 -0.15,0.375 -0.3,0.375 z" style="fill:#fbe900;fill-opacity:1;fill-rule:evenodd;stroke:none" id="path344"/>
                  </g>
                </g>
                <g id="g346">
                  <g id="g348">
                    <path d="m 49.434,89.425 v 0 c 0.075,1.125 0.901,1.35 0.901,1.35 v 0 c 0,0 0.9,-0.225 0.9,-1.35 z m 2.851,0 v 0 H 52.21 L 52.06,90.7 c 0.15,0.075 0.3,0.226 0.3,0.376 0,0.15 -0.15,0.3 -0.3,0.3 h -0.075 v 0.6 0 h 0.075 c 0.075,0 0.075,0.075 0.075,0.075 v 0.45 h -0.15 v -0.225 h -0.3 v 0.225 H 51.46 v -0.225 h -0.225 v 0.225 H 51.01 v -0.45 c 0,0 0,-0.075 0.075,-0.075 h 0.075 0.075 l -0.075,-0.6 h -0.3 l -0.15,1.275 h 0.15 c 0,0 0.075,0.076 0.075,0.076 v 0.45 H 50.71 v -0.225 h -0.3 v 0.225 h -0.15 v -0.225 h -0.301 v 0.225 h -0.225 v -0.45 c 0,0 0.075,0 0.075,-0.076 h 0.15 l -0.075,-1.275 h -0.375 l -0.075,0.6 h 0.075 0.075 c 0,0 0.075,0.075 0.075,0.075 v 0.45 h -0.225 v -0.225 h -0.225 v 0.225 h -0.225 v -0.225 h -0.3 v 0.225 h -0.15 v -0.45 c 0,0 0,-0.075 0.075,-0.075 h 0.075 v 0 -0.6 0 c -0.225,0 -0.375,-0.15 -0.375,-0.3 0,-0.15 0.15,-0.301 0.3,-0.301 l -0.075,-1.35 h -0.075 c -0.225,0 -0.375,-0.15 -0.375,-0.375 0,-0.15 0.15,-0.301 0.375,-0.301 h 3.826 c 0.15,0 0.3,0.151 0.3,0.301 0,0.225 -0.15,0.375 -0.3,0.375 z" style="fill:#fbe900;fill-opacity:1;fill-rule:evenodd;stroke:none" id="path354"/>
                  </g>
                </g>
                <g id="g356">
                  <g id="g358">
                    <path d="m 26.255,77.419 v 0 c 0.075,1.125 0.9,1.35 0.9,1.35 0,0 0.825,-0.225 0.9,-1.35 z m 2.776,0 v 0 0 l -0.151,1.35 c 0.151,0 0.301,0.075 0.301,0.3 0,0.15 -0.15,0.301 -0.376,0.301 v 0 l -0.075,0.6 h 0.075 0.075 c 0.076,0 0.076,0 0.076,0.075 v 0.45 H 28.805 V 80.27 h -0.3 v 0.225 H 28.28 V 80.27 h -0.3 v 0.225 h -0.15 v -0.45 c 0,0 0,-0.075 0.075,-0.075 h 0.075 0.075 l -0.075,-0.6 h -0.375 l -0.075,1.275 h 0.15 c 0,0 0.075,0.075 0.075,0.075 v 0.45 H 27.53 v -0.225 h -0.3 v 0.225 h -0.15 v -0.225 h -0.3 v 0.225 h -0.225 v -0.45 c 0,0 0.075,-0.075 0.075,-0.075 h 0.15 L 26.705,79.37 H 26.33 l -0.075,0.6 h 0.075 0.075 c 0,0 0.075,0 0.075,0.075 v 0.45 H 26.255 V 80.27 H 26.03 v 0.225 H 25.805 V 80.27 h -0.3 v 0.225 h -0.15 v -0.45 c 0,0 0,-0.075 0.075,-0.075 h 0.075 v 0 -0.6 H 25.43 c -0.15,0 -0.3,-0.151 -0.3,-0.301 0,-0.15 0.15,-0.3 0.3,-0.3 l -0.15,-1.35 v 0 c -0.225,0 -0.375,-0.151 -0.375,-0.376 0,-0.15 0.15,-0.3 0.375,-0.3 h 3.751 c 0.225,0 0.375,0.15 0.375,0.3 0,0.225 -0.15,0.376 -0.375,0.376 z" style="fill:#fbe900;fill-opacity:1;fill-rule:evenodd;stroke:none" id="path364"/>
                  </g>
                </g>
                <g id="g366">
                  <g id="g368">
                    <path d="m 49.434,77.419 v 0 c 0.075,1.125 0.901,1.35 0.901,1.35 v 0 c 0,0 0.9,-0.225 0.9,-1.35 z m 2.851,0 v 0 H 52.21 l -0.15,1.35 c 0.15,0 0.3,0.075 0.3,0.3 0,0.15 -0.15,0.301 -0.3,0.301 h -0.075 v 0.6 0 h 0.075 c 0.075,0 0.075,0 0.075,0.075 v 0.45 h -0.15 V 80.27 h -0.3 v 0.225 H 51.46 V 80.27 h -0.225 v 0.225 H 51.01 v -0.45 c 0,0 0,-0.075 0.075,-0.075 h 0.075 0.075 l -0.075,-0.6 h -0.3 l -0.15,1.275 h 0.15 c 0,0 0.075,0.075 0.075,0.075 v 0.45 H 50.71 v -0.225 h -0.3 v 0.225 h -0.15 v -0.225 h -0.301 v 0.225 h -0.225 v -0.45 c 0,0 0.075,-0.075 0.075,-0.075 h 0.15 L 49.884,79.37 h -0.375 l -0.075,0.6 h 0.075 0.075 c 0,0 0.075,0 0.075,0.075 v 0.45 H 49.434 V 80.27 h -0.225 v 0.225 H 48.984 V 80.27 h -0.3 v 0.225 h -0.15 v -0.45 c 0,0 0,-0.075 0.075,-0.075 h 0.075 v 0 -0.6 0 c -0.225,0 -0.375,-0.151 -0.375,-0.301 0,-0.15 0.15,-0.3 0.3,-0.3 l -0.075,-1.35 h -0.075 c -0.225,0 -0.375,-0.151 -0.375,-0.376 0,-0.15 0.15,-0.3 0.375,-0.3 h 3.826 c 0.15,0 0.3,0.15 0.3,0.3 0,0.225 -0.15,0.376 -0.3,0.376 z" style="fill:#fbe900;fill-opacity:1;fill-rule:evenodd;stroke:none" id="path374"/>
                  </g>
                </g>
                <g id="g376">
                  <g id="g378">
                    <path d="m 30.456,64.887 v 0 c -0.75,0.825 -0.3,1.651 -0.3,1.651 0,0 0.75,0.45 1.575,-0.375 z m 2.025,2.026 v 0 l -0.075,-0.075 -1.05,0.9 c 0.15,0.151 0.15,0.301 0,0.451 -0.15,0.075 -0.375,0.075 -0.45,0 l -0.075,-0.075 -0.375,0.375 v 0.075 l 0.075,0.075 c 0,0 0,0.075 0,0.075 l -0.3,0.3 -0.15,-0.15 0.15,-0.15 -0.225,-0.225 -0.15,0.225 -0.15,-0.15 0.15,-0.15 -0.15,-0.225 -0.15,0.15 -0.15,-0.15 0.3,-0.3 c 0,0 0.075,0 0.075,0 l 0.075,0.075 0.075,0.075 0.375,-0.451 -0.3,-0.3 -0.975,0.901 0.15,0.075 c 0,0 0,0.075 0,0.075 l -0.301,0.3 -0.15,-0.15 0.15,-0.15 -0.225,-0.225 -0.15,0.15 -0.15,-0.15 0.15,-0.075 -0.15,-0.225 -0.15,0.15 -0.15,-0.15 0.3,-0.301 c 0,0 0.075,0 0.075,0 l 0.075,0.075 0.826,-0.975 -0.225,-0.225 -0.451,0.375 v 0 l 0.075,0.075 c 0,0.075 0.075,0.075 0,0.075 l -0.3,0.3 -0.15,-0.075 0.15,-0.15 -0.15,-0.225 -0.15,0.15 -0.15,-0.15 0.15,-0.15 -0.225,-0.15 -0.15,0.075 -0.15,-0.075 0.3,-0.3 c 0.075,-0.075 0.075,-0.075 0.15,0 l 0.075,0.075 v 0 l 0.375,-0.451 v 0 c -0.15,-0.15 -0.15,-0.375 0,-0.45 0.15,-0.15 0.3,-0.15 0.451,-0.075 l 0.825,-0.975 v -0.075 c -0.15,-0.15 -0.15,-0.376 0,-0.451 0.075,-0.15 0.3,-0.15 0.45,0 l 2.7,2.702 c 0.15,0.075 0.15,0.3 0,0.45 -0.15,0.15 -0.375,0.15 -0.45,0 z" style="fill:#fbe900;fill-opacity:1;fill-rule:evenodd;stroke:none" id="path384"/>
                  </g>
                </g>
                <g id="g386">
                  <g id="g388">
                    <path d="m 45.909,66.163 v 0 c 0.825,0.825 1.65,0.375 1.65,0.375 0,0 0.375,-0.826 -0.375,-1.651 z m -1.125,0.75 v 0 c -0.151,-0.15 -0.151,-0.375 0,-0.45 l 2.7,-2.702 c 0.075,-0.15 0.3,-0.15 0.45,0 0.15,0.075 0.15,0.301 0,0.451 l -0.075,0.075 0.9,0.975 c 0.15,-0.075 0.3,-0.075 0.45,0.075 0.15,0.075 0.15,0.3 0,0.45 h -0.075 l 0.45,0.451 v 0 l 0.075,-0.075 c 0,-0.075 0.075,-0.075 0.075,0 l 0.301,0.3 -0.151,0.075 -0.15,-0.075 -0.15,0.15 0.15,0.15 -0.15,0.15 -0.15,-0.15 -0.225,0.225 0.15,0.15 -0.15,0.075 -0.3,-0.3 c 0,0 0,0 0,-0.075 l 0.075,-0.075 h 0.075 l -0.45,-0.375 -0.3,0.225 0.9,0.975 0.075,-0.075 c 0,0 0.075,0 0.075,0 l 0.3,0.301 -0.15,0.15 -0.15,-0.15 -0.225,0.225 0.15,0.075 -0.15,0.15 -0.075,-0.15 -0.225,0.225 0.15,0.15 -0.15,0.15 -0.3,-0.3 c 0,0 0,-0.075 0,-0.075 l 0.075,-0.075 -0.975,-0.901 -0.225,0.3 0.375,0.451 v -0.075 l 0.075,-0.075 c 0.075,0 0.075,0 0.15,0 l 0.3,0.3 -0.15,0.15 -0.15,-0.15 -0.225,0.225 0.15,0.15 -0.15,0.15 -0.15,-0.225 -0.15,0.225 0.15,0.15 -0.15,0.15 -0.3,-0.3 c -0.075,0 0,-0.075 0,-0.075 l 0.075,-0.075 v -0.075 l -0.45,-0.375 v 0.075 c -0.15,0.075 -0.375,0.075 -0.45,0 -0.15,-0.15 -0.15,-0.3 -0.075,-0.451 l -0.975,-0.9 -0.075,0.075 c -0.15,0.15 -0.3,0.15 -0.45,0 z" style="fill:#fbe900;fill-opacity:1;fill-rule:evenodd;stroke:none" id="path394"/>
                  </g>
                </g>
                <g id="g396">
                  <g id="g398">
                    <path d="m 39.833,69.915 v 0 c -0.225,0 -0.376,-0.15 -0.376,-0.376 0,-0.225 0.151,-0.375 0.376,-0.375 0.225,0 0.375,0.15 0.375,0.375 0,0.226 -0.15,0.376 -0.375,0.376 z" style="fill:#ffffff;fill-opacity:1;fill-rule:evenodd;stroke:none" id="path404"/>
                  </g>
                </g>
                <g id="g406">
                  <g id="g408">
                    <path d="m 37.732,69.915 v 0 c -0.225,0 -0.375,-0.15 -0.375,-0.376 0,-0.225 0.15,-0.375 0.375,-0.375 0.225,0 0.375,0.15 0.375,0.375 0,0.226 -0.15,0.376 -0.375,0.376 z" style="fill:#ffffff;fill-opacity:1;fill-rule:evenodd;stroke:none" id="path414"/>
                  </g>
                </g>
                <g id="g416">
                  <g id="g418">
                    <path d="m 38.782,81.095 v 0 c 0.826,0 1.876,0.751 1.876,2.102 v 2.776 h -3.826 v -2.776 c 0,-1.351 1.05,-2.102 1.95,-2.102 z" style="fill:#00487d;fill-opacity:1;fill-rule:nonzero;stroke:none" id="path424"/>
                  </g>
                </g>
                <g id="g426">
                  <g id="g428">
                    <path d="m 38.182,84.847 v 0 c 0,0.226 -0.15,0.451 -0.45,0.451 -0.225,0 -0.375,-0.225 -0.375,-0.451 0,-0.225 0.15,-0.45 0.375,-0.45 0.3,0 0.45,0.225 0.45,0.45 z" style="fill:#ffffff;fill-opacity:1;fill-rule:evenodd;stroke:none" id="path434"/>
                  </g>
                </g>
                <g id="g436">
                  <g id="g438">
                    <path d="m 39.157,83.872 v 0 c 0,0.225 -0.15,0.45 -0.375,0.45 -0.3,0 -0.45,-0.225 -0.45,-0.45 0,-0.225 0.15,-0.45 0.45,-0.45 0.225,0 0.375,0.225 0.375,0.45 z" style="fill:#ffffff;fill-opacity:1;fill-rule:evenodd;stroke:none" id="path444"/>
                  </g>
                </g>
                <g id="g446">
                  <g id="g448">
                    <path d="m 40.208,82.896 v 0 c 0,0.226 -0.225,0.451 -0.45,0.451 -0.225,0 -0.451,-0.225 -0.451,-0.451 0,-0.3 0.226,-0.45 0.451,-0.45 0.225,0 0.45,0.15 0.45,0.45 z" style="fill:#ffffff;fill-opacity:1;fill-rule:evenodd;stroke:none" id="path454"/>
                  </g>
                </g>
                <g id="g456">
                  <g id="g458">
                    <path d="m 39.758,84.397 v 0 c 0.225,0 0.45,0.225 0.45,0.45 0,0.226 -0.225,0.451 -0.45,0.451 -0.225,0 -0.451,-0.225 -0.451,-0.451 0,-0.225 0.226,-0.45 0.451,-0.45 z" style="fill:#ffffff;fill-opacity:1;fill-rule:evenodd;stroke:none" id="path464"/>
                  </g>
                </g>
                <g id="g466">
                  <g id="g468">
                    <path d="m 37.732,82.446 v 0 c 0.3,0 0.45,0.15 0.45,0.45 0,0.226 -0.15,0.451 -0.45,0.451 -0.225,0 -0.375,-0.225 -0.375,-0.451 0,-0.3 0.15,-0.45 0.375,-0.45 z" style="fill:#ffffff;fill-opacity:1;fill-rule:evenodd;stroke:none" id="path474"/>
                  </g>
                </g>
                <g id="g476">
                  <g id="g478">
                    <path d="m 38.782,74.417 v 0 c 0.826,0 1.876,0.75 1.876,2.101 v 2.777 h -3.826 v -2.777 c 0,-1.351 1.05,-2.101 1.95,-2.101 z" style="fill:#00487d;fill-opacity:1;fill-rule:nonzero;stroke:none" id="path484"/>
                  </g>
                </g>
                <g id="g486">
                  <g id="g488">
                    <path d="m 38.182,78.169 v 0 c 0,0.225 -0.15,0.45 -0.45,0.45 -0.225,0 -0.375,-0.225 -0.375,-0.45 0,-0.225 0.15,-0.45 0.375,-0.45 0.3,0 0.45,0.225 0.45,0.45 z" style="fill:#ffffff;fill-opacity:1;fill-rule:evenodd;stroke:none" id="path494"/>
                  </g>
                </g>
                <g id="g496">
                  <g id="g498">
                    <path d="m 39.157,77.193 v 0 c 0,0.226 -0.15,0.451 -0.375,0.451 -0.3,0 -0.45,-0.225 -0.45,-0.451 0,-0.225 0.15,-0.45 0.45,-0.45 0.225,0 0.375,0.225 0.375,0.45 z" style="fill:#ffffff;fill-opacity:1;fill-rule:evenodd;stroke:none" id="path504"/>
                  </g>
                </g>
                <g id="g506">
                  <g id="g508">
                    <path d="m 40.208,76.218 v 0 c 0,0.225 -0.225,0.45 -0.45,0.45 -0.225,0 -0.451,-0.225 -0.451,-0.45 0,-0.225 0.226,-0.45 0.451,-0.45 0.225,0 0.45,0.225 0.45,0.45 z" style="fill:#ffffff;fill-opacity:1;fill-rule:evenodd;stroke:none" id="path514"/>
                  </g>
                </g>
                <g id="g516">
                  <g id="g518">
                    <path d="m 39.758,77.719 v 0 c 0.225,0 0.45,0.225 0.45,0.45 0,0.225 -0.225,0.45 -0.45,0.45 -0.225,0 -0.451,-0.225 -0.451,-0.45 0,-0.225 0.226,-0.45 0.451,-0.45 z" style="fill:#ffffff;fill-opacity:1;fill-rule:evenodd;stroke:none" id="path524"/>
                  </g>
                </g>
                <g id="g526">
                  <g id="g528">
                    <path d="m 37.732,75.768 v 0 c 0.3,0 0.45,0.225 0.45,0.45 0,0.225 -0.15,0.45 -0.45,0.45 -0.225,0 -0.375,-0.225 -0.375,-0.45 0,-0.225 0.15,-0.45 0.375,-0.45 z" style="fill:#ffffff;fill-opacity:1;fill-rule:evenodd;stroke:none" id="path534"/>
                  </g>
                </g>
                <g id="g536">
                  <g id="g538">
                    <path d="m 33.456,74.417 v 0 c 0.826,0 1.876,0.75 1.876,2.101 v 2.777 h -3.826 v -2.777 c 0,-1.351 1.05,-2.101 1.95,-2.101 z" style="fill:#00487d;fill-opacity:1;fill-rule:nonzero;stroke:none" id="path544"/>
                  </g>
                </g>
                <g id="g546">
                  <g id="g548">
                    <path d="m 32.856,78.169 v 0 c 0,0.225 -0.15,0.45 -0.45,0.45 -0.225,0 -0.45,-0.225 -0.45,-0.45 0,-0.225 0.225,-0.45 0.45,-0.45 0.3,0 0.45,0.225 0.45,0.45 z" style="fill:#ffffff;fill-opacity:1;fill-rule:evenodd;stroke:none" id="path554"/>
                  </g>
                </g>
                <g id="g556">
                  <g id="g558">
                    <path d="m 33.831,77.193 v 0 c 0,0.226 -0.15,0.451 -0.375,0.451 -0.3,0 -0.45,-0.225 -0.45,-0.451 0,-0.225 0.15,-0.45 0.45,-0.45 0.225,0 0.375,0.225 0.375,0.45 z" style="fill:#ffffff;fill-opacity:1;fill-rule:evenodd;stroke:none" id="path564"/>
                  </g>
                </g>
                <g id="g566">
                  <g id="g568">
                    <path d="m 34.807,76.218 v 0 c 0,0.225 -0.15,0.45 -0.375,0.45 -0.301,0 -0.451,-0.225 -0.451,-0.45 0,-0.225 0.15,-0.45 0.451,-0.45 0.225,0 0.375,0.225 0.375,0.45 z" style="fill:#ffffff;fill-opacity:1;fill-rule:evenodd;stroke:none" id="path574"/>
                  </g>
                </g>
                <g id="g576">
                  <g id="g578">
                    <path d="m 34.432,77.719 v 0 c 0.225,0 0.375,0.225 0.375,0.45 0,0.225 -0.15,0.45 -0.375,0.45 -0.301,0 -0.451,-0.225 -0.451,-0.45 0,-0.225 0.15,-0.45 0.451,-0.45 z" style="fill:#ffffff;fill-opacity:1;fill-rule:evenodd;stroke:none" id="path584"/>
                  </g>
                </g>
                <g id="g586">
                  <g id="g588">
                    <path d="m 32.406,75.768 v 0 c 0.3,0 0.45,0.225 0.45,0.45 0,0.225 -0.15,0.45 -0.45,0.45 -0.225,0 -0.45,-0.225 -0.45,-0.45 0,-0.225 0.225,-0.45 0.45,-0.45 z" style="fill:#ffffff;fill-opacity:1;fill-rule:evenodd;stroke:none" id="path594"/>
                  </g>
                </g>
                <g id="g596">
                  <g id="g598">
                    <path d="m 44.108,74.417 v 0 c 0.826,0 1.951,0.75 1.951,2.101 v 2.777 h -3.901 v -2.777 c 0,-1.351 1.125,-2.101 1.95,-2.101 z" style="fill:#00487d;fill-opacity:1;fill-rule:nonzero;stroke:none" id="path604"/>
                  </g>
                </g>
                <g id="g606">
                  <g id="g608">
                    <path d="m 43.508,78.169 v 0 c 0,0.225 -0.15,0.45 -0.45,0.45 -0.225,0 -0.375,-0.225 -0.375,-0.45 0,-0.225 0.15,-0.45 0.375,-0.45 0.3,0 0.45,0.225 0.45,0.45 z" style="fill:#ffffff;fill-opacity:1;fill-rule:evenodd;stroke:none" id="path614"/>
                  </g>
                </g>
                <g id="g616">
                  <g id="g618">
                    <path d="m 44.558,77.193 v 0 c 0,0.226 -0.225,0.451 -0.45,0.451 -0.3,0 -0.45,-0.225 -0.45,-0.451 0,-0.225 0.15,-0.45 0.45,-0.45 0.225,0 0.45,0.225 0.45,0.45 z" style="fill:#ffffff;fill-opacity:1;fill-rule:evenodd;stroke:none" id="path624"/>
                  </g>
                </g>
                <g id="g626">
                  <g id="g628">
                    <path d="m 45.534,76.218 v 0 c 0,0.225 -0.225,0.45 -0.45,0.45 -0.225,0 -0.451,-0.225 -0.451,-0.45 0,-0.225 0.226,-0.45 0.451,-0.45 0.225,0 0.45,0.225 0.45,0.45 z" style="fill:#ffffff;fill-opacity:1;fill-rule:evenodd;stroke:none" id="path634"/>
                  </g>
                </g>
                <g id="g636">
                  <g id="g638">
                    <path d="m 45.084,77.719 v 0 c 0.225,0 0.45,0.225 0.45,0.45 0,0.225 -0.225,0.45 -0.45,0.45 -0.225,0 -0.451,-0.225 -0.451,-0.45 0,-0.225 0.226,-0.45 0.451,-0.45 z" style="fill:#ffffff;fill-opacity:1;fill-rule:evenodd;stroke:none" id="path644"/>
                  </g>
                </g>
                <g id="g646">
                  <g id="g648">
                    <path d="m 43.058,75.768 v 0 c 0.3,0 0.45,0.225 0.45,0.45 0,0.225 -0.15,0.45 -0.45,0.45 -0.225,0 -0.375,-0.225 -0.375,-0.45 0,-0.225 0.15,-0.45 0.375,-0.45 z" style="fill:#ffffff;fill-opacity:1;fill-rule:evenodd;stroke:none" id="path654"/>
                  </g>
                </g>
                <g id="g656">
                  <g id="g658">
                    <path d="m 38.782,67.814 v 0 c 0.826,0 1.876,0.675 1.876,2.026 v 2.776 H 36.832 V 69.84 c 0,-1.351 1.05,-2.026 1.95,-2.026 z" style="fill:#00487d;fill-opacity:1;fill-rule:nonzero;stroke:none" id="path664"/>
                  </g>
                </g>
                <g id="g666">
                  <g id="g668">
                    <path d="m 38.182,71.49 v 0 c 0,0.226 -0.15,0.451 -0.45,0.451 -0.225,0 -0.375,-0.225 -0.375,-0.451 0,-0.225 0.15,-0.45 0.375,-0.45 0.3,0 0.45,0.225 0.45,0.45 z" style="fill:#ffffff;fill-opacity:1;fill-rule:evenodd;stroke:none" id="path674"/>
                  </g>
                </g>
                <g id="g676">
                  <g id="g678">
                    <path d="m 39.157,70.515 v 0 c 0,0.225 -0.15,0.45 -0.375,0.45 -0.3,0 -0.45,-0.225 -0.45,-0.45 0,-0.225 0.15,-0.45 0.45,-0.45 0.225,0 0.375,0.225 0.375,0.45 z" style="fill:#ffffff;fill-opacity:1;fill-rule:evenodd;stroke:none" id="path684"/>
                  </g>
                </g>
                <g id="g686">
                  <g id="g688">
                    <path d="m 40.208,69.539 v 0 c 0,0.226 -0.225,0.451 -0.45,0.451 -0.225,0 -0.451,-0.225 -0.451,-0.451 0,-0.225 0.226,-0.45 0.451,-0.45 0.225,0 0.45,0.225 0.45,0.45 z" style="fill:#ffffff;fill-opacity:1;fill-rule:evenodd;stroke:none" id="path694"/>
                  </g>
                </g>
                <g id="g696">
                  <g id="g698">
                    <path d="m 39.758,71.04 v 0 c 0.225,0 0.45,0.225 0.45,0.45 0,0.226 -0.225,0.451 -0.45,0.451 -0.225,0 -0.451,-0.225 -0.451,-0.451 0,-0.225 0.226,-0.45 0.451,-0.45 z" style="fill:#ffffff;fill-opacity:1;fill-rule:evenodd;stroke:none" id="path704"/>
                  </g>
                </g>
                <g id="g706">
                  <g id="g708">
                    <path d="m 37.732,69.089 v 0 c 0.3,0 0.45,0.225 0.45,0.45 0,0.226 -0.15,0.451 -0.45,0.451 -0.225,0 -0.375,-0.225 -0.375,-0.451 0,-0.225 0.15,-0.45 0.375,-0.45 z" style="fill:#ffffff;fill-opacity:1;fill-rule:evenodd;stroke:none" id="path714"/>
                  </g>
                </g>
                <g id="g716">
                  <g id="g718">
                    <path d="m 138.03,104.88 v 0 c -1.13,0.9 -2.93,1.35 -5.33,1.35 -0.52,0 -1.05,-0.07 -1.58,-0.07 -0.52,0 -0.97,0 -1.35,-0.08 V 94.978 c 0.23,-0.075 0.6,-0.075 1.13,-0.075 0.45,0 0.98,-0.075 1.58,-0.075 2.32,0 4.05,0.525 5.4,1.65 1.27,1.051 1.95,2.477 1.95,4.202 0,1.95 -0.6,3.38 -1.8,4.2 z m 2.1,-29.337 v 0 L 130.67,90.7 h -0.9 V 79.595 c 1.28,-0.075 2.48,-0.3 3.61,-0.601 v -3.451 h -13.73 v 3.376 c 0.67,0.225 1.42,0.3 2.17,0.451 0.75,0.075 1.5,0.15 2.33,0.225 v 26.935 c -0.83,0.08 -1.58,0.15 -2.33,0.23 -0.75,0.15 -1.5,0.22 -2.17,0.45 v 3.45 h 4.05 c 0.3,0 0.82,0 1.5,0 0.67,0 1.42,0 2.32,0.08 0.83,0 1.8,0.07 2.85,0.07 0.98,0 2.03,0 3.16,0 1.8,0 3.45,-0.15 4.95,-0.52 1.5,-0.3 2.77,-0.9 3.9,-1.58 1.05,-0.75 1.95,-1.73 2.55,-3 0.52,-1.2 0.82,-2.63 0.82,-4.43 0,-1.27 -0.22,-2.475 -0.67,-3.601 -0.45,-1.05 -1.05,-2.026 -1.88,-2.851 -0.82,-0.826 -1.8,-1.501 -3,-2.026 -1.12,-0.526 -2.32,-0.901 -3.67,-1.126 0.37,-0.45 0.75,-0.901 1.05,-1.426 0.37,-0.525 0.67,-0.975 0.97,-1.501 l 6.08,-9.079 c 0.52,-0.075 1.12,-0.15 1.8,-0.225 0.6,-0.15 1.27,-0.301 1.95,-0.376 v -3.526 z" style="fill:#393939;fill-opacity:1;fill-rule:nonzero;stroke:none" id="path724"/>
                  </g>
                </g>
                <g id="g726">
                  <g id="g728">
                    <path d="m 150.78,75.543 v 0 3.376 c 0.67,0.225 1.42,0.376 2.17,0.451 0.75,0.075 1.58,0.15 2.33,0.225 v 26.935 c -0.75,0.08 -1.58,0.15 -2.33,0.3 -0.75,0.08 -1.5,0.23 -2.17,0.38 v 3.45 h 23.25 v -8.4 h -4.12 c -0.15,0.75 -0.23,1.42 -0.38,2.1 -0.07,0.67 -0.15,1.27 -0.22,1.87 h -8.4 V 95.653 h 6.75 c 0,0.6 0.15,1.126 0.22,1.651 0.08,0.6 0.23,1.05 0.45,1.576 h 3.53 V 88.224 h -3.53 c -0.22,0.525 -0.37,1.051 -0.45,1.651 -0.07,0.525 -0.22,1.051 -0.22,1.576 h -6.75 V 80.12 h 8.4 c 0.07,0.6 0.15,1.276 0.3,1.951 0.07,0.675 0.22,1.426 0.37,2.176 h 4.13 v -8.704 z" style="fill:#393939;fill-opacity:1;fill-rule:nonzero;stroke:none" id="path734"/>
                  </g>
                </g>
                <g id="g736">
                  <g id="g738">
                    <path d="m 197.21,104.51 v 0 c -1.2,1.12 -3.07,1.72 -5.7,1.72 h -1.5 c -0.45,0 -0.9,-0.07 -1.35,-0.15 V 93.252 c 0.38,-0.075 0.83,-0.15 1.2,-0.15 0.45,-0.075 0.83,-0.075 1.28,-0.075 2.4,0.075 4.27,0.675 5.7,1.876 1.42,1.2 2.17,2.851 2.17,4.877 0,2.03 -0.6,3.6 -1.8,4.73 z m 6.68,-9.007 v 0 c -0.6,-1.426 -1.58,-2.701 -2.78,-3.752 -1.2,-1.051 -2.62,-1.876 -4.27,-2.476 -1.73,-0.601 -3.53,-0.901 -5.63,-0.901 h -1.2 c -0.45,0 -0.9,0 -1.35,0.075 v -8.854 c 0.75,-0.075 1.58,-0.15 2.33,-0.225 0.75,-0.151 1.5,-0.226 2.17,-0.451 v -3.376 h -14.7 v 3.376 c 0.75,0.225 1.42,0.3 2.25,0.451 0.75,0.075 1.5,0.15 2.32,0.225 v 26.935 c -0.82,0.08 -1.57,0.15 -2.32,0.23 -0.83,0.15 -1.5,0.22 -2.25,0.45 v 3.45 h 3.97 c 0.45,0 0.98,0 1.73,0 0.68,0 1.5,0 2.33,0.08 0.9,0 1.8,0.07 2.7,0.07 0.97,0 1.87,0 2.77,0 4.2,0 7.43,-0.9 9.6,-2.85 2.18,-1.88 3.3,-4.43 3.3,-7.65 0,-1.73 -0.3,-3.306 -0.97,-4.807 z" style="fill:#393939;fill-opacity:1;fill-rule:nonzero;stroke:none" id="path744"/>
                  </g>
                </g>
                <g id="g746">
                  <g id="g748">
                    <path d="m 223.39,113.14 v 0 l -2.02,3.15 8.17,5.7 2.48,-3.75 z m 14.71,-6.61 v 0 -17.63 c 0,-4.653 -1.2,-8.18 -3.61,-10.506 -2.4,-2.251 -5.92,-3.377 -10.57,-3.377 -2.78,0 -5.03,0.3 -6.75,0.976 -1.8,0.75 -3.15,1.651 -4.13,2.851 -0.9,1.126 -1.57,2.477 -1.95,3.977 -0.37,1.426 -0.52,3.002 -0.52,4.653 v 19.056 c -0.61,0.08 -1.21,0.15 -1.81,0.23 -0.6,0.15 -1.12,0.22 -1.65,0.37 v 3.53 h 12.98 v -3.53 c -0.6,-0.15 -1.27,-0.3 -1.95,-0.37 -0.67,-0.08 -1.35,-0.15 -2.02,-0.23 V 87.924 c 0,-1.201 0.15,-2.326 0.37,-3.302 0.23,-1.05 0.6,-1.876 1.2,-2.626 0.6,-0.75 1.43,-1.276 2.48,-1.726 1.05,-0.375 2.4,-0.6 4.05,-0.6 1.42,0 2.62,0.15 3.67,0.45 1.05,0.3 1.88,0.825 2.55,1.576 0.68,0.675 1.2,1.651 1.58,2.776 0.3,1.126 0.45,2.476 0.45,4.127 v 17.931 c -0.68,0.08 -1.35,0.15 -2.03,0.23 -0.67,0.07 -1.35,0.22 -1.95,0.37 v 3.53 h 13.06 v -3.53 c -1.13,-0.3 -2.25,-0.45 -3.45,-0.6 z" style="fill:#393939;fill-opacity:1;fill-rule:nonzero;stroke:none" id="path754"/>
                  </g>
                </g>
                <g id="g756">
                  <g id="g758">
                    <path d="m 266.23,88.599 v 0 c -0.38,0.676 -0.98,1.201 -1.73,1.651 -0.75,0.45 -1.65,0.751 -2.7,0.976 -1.05,0.15 -2.18,0.225 -3.45,0.225 h -0.6 -0.9 c -0.3,0 -0.6,0 -0.9,0 -0.3,0 -0.53,0 -0.75,0 V 80.27 c 0.97,-0.225 2.32,-0.3 4.12,-0.3 2.63,0 4.51,0.6 5.71,1.726 1.27,1.125 1.87,2.551 1.87,4.352 0,0.976 -0.22,1.801 -0.67,2.551 z m -0.3,14.711 v 0 c -0.23,0.6 -0.6,1.12 -1.13,1.57 -0.52,0.45 -1.2,0.75 -2.03,0.98 -0.82,0.3 -1.87,0.37 -3.15,0.37 -0.82,0 -1.57,0 -2.25,0 -0.75,0 -1.5,-0.07 -2.17,-0.07 V 95.728 c 0.45,0 0.9,0 1.42,0 h 1.58 c 2.62,0 4.65,0.45 6,1.501 1.35,0.975 2.03,2.401 2.03,4.131 0,0.75 -0.08,1.42 -0.3,1.95 z m 6.3,-20.789 v 0 c -0.45,-1.275 -1.13,-2.476 -2.18,-3.527 -1.05,-1.05 -2.47,-1.876 -4.2,-2.626 -1.8,-0.675 -4.05,-1.051 -6.75,-1.051 -1.05,0 -2.48,0.075 -4.13,0.075 -1.65,0.076 -3.45,0.151 -5.4,0.151 h -4.5 v 3.376 c 0.68,0.225 1.43,0.3 2.18,0.451 0.75,0.075 1.57,0.15 2.32,0.225 v 26.935 c -0.75,0.08 -1.57,0.15 -2.32,0.23 -0.75,0.15 -1.5,0.22 -2.18,0.45 v 3.45 h 4.35 c 1.35,0 3,0 4.95,0.08 2.03,0 4.05,0.07 6.15,0.07 3.91,0 6.76,-0.75 8.71,-2.25 1.95,-1.5 2.92,-3.6 2.92,-6.3 0,-1.8 -0.52,-3.455 -1.65,-4.881 -1.05,-1.501 -2.55,-2.551 -4.35,-3.152 v -0.075 c 1.2,-0.225 2.18,-0.6 3,-1.125 0.9,-0.526 1.58,-1.126 2.1,-1.876 0.53,-0.751 0.98,-1.501 1.2,-2.402 0.3,-0.825 0.45,-1.725 0.45,-2.626 0,-1.126 -0.22,-2.326 -0.67,-3.602 z" style="fill:#393939;fill-opacity:1;fill-rule:nonzero;stroke:none" id="path764"/>
                  </g>
                </g>
                <g id="g766">
                  <g id="g768">
                    <path d="m 277.03,75.543 v 0 3.376 c 0.67,0.225 1.42,0.3 2.17,0.451 0.75,0.075 1.5,0.15 2.33,0.225 v 26.935 c -0.83,0.08 -1.58,0.15 -2.33,0.23 -0.75,0.15 -1.5,0.22 -2.17,0.45 v 3.45 h 14.63 v -3.45 c -0.68,-0.23 -1.43,-0.3 -2.18,-0.45 -0.75,-0.08 -1.58,-0.15 -2.33,-0.23 V 80.195 h 7.96 c 0.15,1.351 0.37,2.851 0.75,4.502 h 4.05 v -9.154 z" style="fill:#393939;fill-opacity:1;fill-rule:nonzero;stroke:none" id="path774"/>
                  </g>
                </g>
                <g id="g776">
                  <g id="g778">
                    <path d="m 301.93,75.543 v 0 3.376 c 0.68,0.225 1.43,0.3 2.18,0.451 0.75,0.075 1.5,0.15 2.32,0.225 v 26.935 c -0.82,0.08 -1.57,0.15 -2.32,0.23 -0.75,0.15 -1.5,0.22 -2.18,0.45 v 3.45 h 14.63 v -3.45 c -0.67,-0.23 -1.43,-0.3 -2.18,-0.45 -0.75,-0.08 -1.5,-0.15 -2.32,-0.23 V 79.595 c 0.82,-0.075 1.57,-0.15 2.32,-0.225 0.75,-0.151 1.51,-0.226 2.18,-0.451 v -3.376 z" style="fill:#393939;fill-opacity:1;fill-rule:nonzero;stroke:none" id="path784"/>
                  </g>
                </g>
                <g id="g786">
                  <g id="g788">
                    <path d="m 341.61,100.76 v 0 c -0.15,0.82 -0.3,1.65 -0.37,2.4 -0.08,0.75 -0.15,1.5 -0.23,2.17 -0.82,0.23 -1.57,0.3 -2.25,0.38 -0.75,0.07 -1.42,0.15 -2.25,0.15 -1.65,0 -3.15,-0.38 -4.42,-0.98 -1.28,-0.67 -2.33,-1.5 -3.15,-2.62 -0.83,-1.13 -1.5,-2.555 -1.88,-4.131 -0.45,-1.575 -0.67,-3.301 -0.67,-5.177 0,-1.951 0.22,-3.752 0.67,-5.328 0.45,-1.576 1.13,-2.927 2.03,-4.052 0.97,-1.051 2.17,-1.876 3.6,-2.477 1.5,-0.6 3.22,-0.825 5.25,-0.825 1.35,0 2.7,0.15 4.13,0.375 1.35,0.3 2.62,0.751 3.75,1.201 l 0.37,-5.178 c -1.5,-0.525 -3,-0.9 -4.58,-1.2 -1.65,-0.301 -3.3,-0.451 -4.95,-0.451 -5.55,0 -9.67,1.501 -12.45,4.503 -2.7,3.001 -4.12,7.203 -4.12,12.531 0,2.777 0.37,5.328 1.12,7.654 0.68,2.325 1.73,4.275 3.23,6.005 1.42,1.65 3.22,2.92 5.4,3.9 2.25,0.9 4.8,1.35 7.87,1.35 1.28,0 2.63,-0.07 4.05,-0.22 1.36,-0.15 2.78,-0.45 4.13,-0.75 v -9.23 z" style="fill:#393939;fill-opacity:1;fill-rule:nonzero;stroke:none" id="path794"/>
                  </g>
                </g>
                <g id="g796">
                  <g id="g798">
                    <path d="m 367.87,99.555 v 0 c -0.38,0.905 -0.68,1.805 -0.9,2.625 -0.23,0.9 -0.45,1.8 -0.68,2.78 h -0.07 c -0.23,-0.9 -0.45,-1.8 -0.68,-2.78 -0.3,-0.9 -0.6,-1.87 -0.97,-2.775 L 360.82,88.9 h 10.95 z m 3.23,-24.012 v 0 3.376 c 0.6,0.15 1.2,0.3 1.87,0.376 0.75,0.15 1.43,0.225 2.03,0.3 l -1.8,4.877 h -13.88 l -1.73,-4.877 c 0.6,-0.075 1.28,-0.15 2.03,-0.3 0.67,-0.076 1.27,-0.226 1.87,-0.376 v -3.376 h -12.6 v 3.376 c 0.45,0.15 0.9,0.3 1.5,0.376 0.53,0.075 0.98,0.15 1.5,0.225 l 11.18,31.14 h 6.83 l 11.32,-31.14 c 0.45,-0.075 0.98,-0.15 1.5,-0.225 0.6,-0.076 1.05,-0.226 1.5,-0.376 v -3.376 z" style="fill:#393939;fill-opacity:1;fill-rule:nonzero;stroke:none" id="path804"/>
                  </g>
                </g>
                <g id="g806">
                  <g id="g808">
                    <path d="m 138.33,54.457 v 0 c -1.2,1.125 -3.08,1.725 -5.63,1.725 h -1.5 c -0.53,0 -0.98,-0.075 -1.43,-0.075 V 43.201 c 0.38,-0.075 0.83,-0.075 1.2,-0.15 0.45,0 0.91,-0.075 1.28,-0.075 2.4,0.075 4.28,0.675 5.7,1.876 1.43,1.2 2.18,2.851 2.18,4.952 0,1.951 -0.6,3.527 -1.8,4.653 z m 6.67,-8.93 v 0 c -0.6,-1.501 -1.57,-2.701 -2.7,-3.752 -1.2,-1.126 -2.7,-1.951 -4.35,-2.551 -1.65,-0.601 -3.52,-0.901 -5.62,-0.901 h -1.21 c -0.45,0 -0.9,0.075 -1.35,0.075 v -8.779 c 0.75,-0.075 1.58,-0.15 2.33,-0.301 0.75,-0.075 1.5,-0.225 2.18,-0.375 v -3.452 h -14.63 v 3.452 c 0.67,0.15 1.42,0.3 2.17,0.375 0.75,0.151 1.5,0.226 2.33,0.301 v 26.864 c -0.83,0.075 -1.58,0.15 -2.33,0.3 -0.75,0.075 -1.5,0.225 -2.17,0.375 v 3.452 h 3.9 c 0.45,0 0.97,0 1.72,0 0.68,0 1.5,0.075 2.33,0.075 0.9,0.075 1.8,0.075 2.7,0.075 0.97,0 1.88,0.075 2.78,0.075 4.2,0 7.42,-0.976 9.6,-2.852 2.17,-1.876 3.3,-4.502 3.3,-7.729 0,-1.726 -0.3,-3.301 -0.98,-4.727 z" style="fill:#393939;fill-opacity:1;fill-rule:nonzero;stroke:none" id="path814"/>
                  </g>
                </g>
                <g id="g816">
                  <g id="g818">
                    <path d="m 172.83,52.731 v 0 c -1.8,2.326 -4.35,3.451 -7.65,3.451 -1.35,0 -2.7,-0.3 -3.9,-0.825 -1.27,-0.525 -2.4,-1.351 -3.3,-2.401 -0.98,-1.126 -1.73,-2.401 -2.33,-4.052 -0.52,-1.576 -0.82,-3.452 -0.82,-5.553 0,-1.951 0.22,-3.827 0.6,-5.478 0.45,-1.651 1.05,-3.002 1.87,-4.202 0.91,-1.126 1.96,-2.026 3.23,-2.702 1.28,-0.675 2.78,-0.975 4.58,-0.975 1.27,0 2.55,0.3 3.75,0.825 1.27,0.526 2.4,1.276 3.37,2.402 1.05,1.05 1.8,2.401 2.4,3.977 0.6,1.65 0.9,3.526 0.9,5.703 0,4.277 -0.9,7.579 -2.7,9.83 z m 7.35,-17.034 v 0 c -0.9,-2.326 -2.1,-4.277 -3.6,-5.853 -1.57,-1.576 -3.3,-2.777 -5.4,-3.602 -2.02,-0.901 -4.2,-1.276 -6.52,-1.276 -2.7,0 -5.03,0.375 -6.98,1.276 -1.95,0.825 -3.6,1.951 -4.95,3.527 -1.28,1.576 -2.25,3.376 -2.93,5.553 -0.67,2.176 -0.97,4.652 -0.97,7.353 0,2.852 0.45,5.478 1.35,7.805 0.9,2.251 2.1,4.202 3.6,5.778 1.5,1.575 3.3,2.776 5.4,3.601 2.03,0.826 4.2,1.276 6.53,1.276 2.32,0 4.5,-0.375 6.45,-1.126 1.95,-0.75 3.6,-1.8 4.95,-3.301 1.42,-1.426 2.47,-3.302 3.22,-5.478 0.83,-2.251 1.2,-4.803 1.2,-7.729 0,-2.927 -0.45,-5.553 -1.35,-7.804 z" style="fill:#393939;fill-opacity:1;fill-rule:nonzero;stroke:none" id="path824"/>
                  </g>
                </g>
                <g id="g826">
                  <g id="g828">
                    <path d="m 203.29,54.907 v 0 c -1.2,0.825 -3,1.275 -5.33,1.275 -0.6,0 -1.12,0 -1.65,0 -0.45,-0.075 -0.9,-0.075 -1.35,-0.075 v -11.18 c 0.3,0 0.68,-0.075 1.13,-0.075 0.45,0 0.97,0 1.65,0 2.25,0 4.05,0.525 5.32,1.575 1.28,1.051 1.95,2.477 1.95,4.203 0,1.951 -0.6,3.376 -1.72,4.277 z m 2.02,-29.416 v 0 l -9.45,15.158 h -0.9 v -11.03 c 1.28,-0.15 2.48,-0.376 3.6,-0.676 v -3.452 h -13.72 v 3.452 c 0.67,0.15 1.42,0.3 2.17,0.375 0.75,0.151 1.58,0.226 2.33,0.301 v 26.864 c -0.75,0.075 -1.58,0.15 -2.33,0.3 -0.75,0.075 -1.5,0.225 -2.17,0.375 v 3.452 h 4.05 c 0.37,0 0.82,0 1.5,0 0.67,0 1.42,0.075 2.32,0.075 0.9,0.075 1.88,0.075 2.85,0.075 1.05,0 2.1,0.075 3.15,0.075 1.8,0 3.45,-0.225 4.95,-0.525 1.5,-0.376 2.85,-0.901 3.9,-1.651 1.13,-0.751 1.95,-1.726 2.55,-2.927 0.61,-1.275 0.91,-2.701 0.91,-4.427 0,-1.351 -0.23,-2.551 -0.68,-3.602 -0.45,-1.126 -1.13,-2.101 -1.95,-2.926 -0.83,-0.751 -1.8,-1.426 -2.93,-2.027 -1.12,-0.525 -2.4,-0.9 -3.75,-1.125 0.38,-0.45 0.75,-0.901 1.13,-1.426 0.3,-0.45 0.67,-0.975 0.97,-1.426 l 6.08,-9.154 c 0.52,-0.075 1.13,-0.15 1.73,-0.225 0.6,-0.151 1.27,-0.226 1.95,-0.376 v -3.527 z" style="fill:#393939;fill-opacity:1;fill-rule:nonzero;stroke:none" id="path834"/>
                  </g>
                </g>
                <g id="g836">
                  <g id="g838">
                    <path d="m 239.37,51.305 v 0 c -0.15,0.9 -0.3,1.726 -0.45,2.476 -0.07,0.751 -0.15,1.501 -0.22,2.101 h -6.38 V 29.619 c 0.82,-0.075 1.57,-0.225 2.32,-0.301 0.75,-0.075 1.5,-0.225 2.18,-0.375 v -3.452 h -14.63 v 3.452 c 0.68,0.15 1.43,0.3 2.18,0.375 0.75,0.076 1.57,0.226 2.32,0.301 v 26.263 h -6.37 c -0.08,-0.6 -0.15,-1.35 -0.3,-2.101 -0.08,-0.75 -0.23,-1.576 -0.38,-2.476 h -4.05 v 9.305 h 27.83 v -9.305 z" style="fill:#393939;fill-opacity:1;fill-rule:nonzero;stroke:none" id="path844"/>
                  </g>
                </g>
                <g id="g846">
                  <g id="g848">
                    <path d="m 276.8,56.483 v 0 -17.56 c 0,-4.727 -1.2,-8.254 -3.6,-10.505 -2.4,-2.326 -6,-3.452 -10.58,-3.452 -2.77,0 -5.02,0.375 -6.82,1.051 -1.73,0.675 -3.08,1.576 -4.05,2.776 -0.98,1.126 -1.58,2.477 -1.95,3.977 -0.38,1.501 -0.6,3.077 -0.6,4.653 v 19.06 c -0.53,0.075 -1.13,0.15 -1.73,0.3 -0.6,0.075 -1.12,0.225 -1.65,0.3 v 3.527 h 12.98 v -3.527 c -0.6,-0.15 -1.28,-0.3 -1.95,-0.375 -0.68,-0.075 -1.35,-0.15 -2.03,-0.225 v -18.61 c 0,-1.201 0.15,-2.251 0.38,-3.302 0.22,-0.975 0.6,-1.876 1.2,-2.551 0.6,-0.75 1.42,-1.351 2.47,-1.726 1.05,-0.45 2.4,-0.675 4.05,-0.675 1.43,0 2.63,0.15 3.68,0.525 1.05,0.3 1.88,0.825 2.55,1.501 0.68,0.675 1.2,1.651 1.5,2.776 0.38,1.126 0.53,2.551 0.53,4.202 v 17.86 c -0.68,0.075 -1.35,0.15 -2.03,0.225 -0.67,0.075 -1.35,0.225 -1.95,0.375 v 3.527 h 13.05 v -3.527 c -1.12,-0.225 -2.25,-0.45 -3.45,-0.6 z" style="fill:#393939;fill-opacity:1;fill-rule:nonzero;stroke:none" id="path854"/>
                  </g>
                </g>
                <g id="g856">
                  <g id="g858">
                    <path d="m 314.61,39.749 v 0 c -0.6,-0.075 -1.13,-0.15 -1.65,-0.225 V 27.067 c -1.8,-0.675 -3.68,-1.2 -5.78,-1.576 -2.02,-0.375 -4.05,-0.525 -6.07,-0.525 -2.7,0 -5.1,0.375 -7.28,1.201 -2.17,0.75 -3.97,1.951 -5.55,3.377 -1.5,1.5 -2.63,3.301 -3.45,5.477 -0.83,2.102 -1.2,4.578 -1.2,7.279 0,2.702 0.45,5.253 1.27,7.579 0.9,2.251 2.18,4.277 3.83,5.928 1.65,1.651 3.68,2.927 6,3.902 2.4,0.901 5.1,1.351 8.03,1.351 1.65,0 3.3,-0.075 4.87,-0.3 1.58,-0.3 3.15,-0.6 4.8,-0.976 v -8.779 h -4.2 c -0.22,0.75 -0.37,1.501 -0.45,2.251 -0.07,0.75 -0.22,1.501 -0.22,2.176 -0.9,0.225 -1.8,0.375 -2.63,0.525 -0.9,0.075 -1.72,0.15 -2.55,0.15 -1.8,0 -3.45,-0.225 -4.95,-0.825 -1.57,-0.525 -2.92,-1.351 -4.05,-2.476 -1.12,-1.126 -2.02,-2.552 -2.7,-4.202 -0.67,-1.651 -0.97,-3.602 -0.97,-5.778 0,-4.053 1.05,-7.204 3.22,-9.455 2.18,-2.252 5.18,-3.377 8.93,-3.377 1.05,0 2.02,0.075 2.92,0.225 0.9,0.15 1.73,0.375 2.55,0.6 v 8.63 c -0.82,0.075 -1.57,0.15 -2.32,0.3 -0.83,0.075 -1.5,0.225 -2.1,0.375 v 3.452 h 13.2 v -3.452 c -0.45,-0.15 -0.98,-0.3 -1.5,-0.375 z" style="fill:#393939;fill-opacity:1;fill-rule:nonzero;stroke:none" id="path864"/>
                  </g>
                </g>
                <g id="g866">
                  <g id="g868">
                    <path d="m 349.79,56.483 v 0 -17.56 c 0,-4.727 -1.2,-8.254 -3.6,-10.505 -2.4,-2.326 -5.93,-3.452 -10.58,-3.452 -2.77,0 -5.02,0.375 -6.75,1.051 -1.72,0.675 -3.07,1.576 -4.05,2.776 -0.97,1.126 -1.65,2.477 -2.02,3.977 -0.38,1.501 -0.53,3.077 -0.53,4.653 v 19.06 c -0.6,0.075 -1.2,0.15 -1.8,0.3 -0.6,0.075 -1.12,0.225 -1.65,0.3 v 3.527 h 12.98 v -3.527 c -0.6,-0.15 -1.28,-0.3 -1.95,-0.375 -0.68,-0.075 -1.35,-0.15 -1.95,-0.225 v -18.61 c 0,-1.201 0.07,-2.251 0.3,-3.302 0.22,-0.975 0.67,-1.876 1.2,-2.551 0.6,-0.75 1.42,-1.351 2.47,-1.726 1.13,-0.45 2.4,-0.675 4.05,-0.675 1.43,0 2.63,0.15 3.68,0.525 1.05,0.3 1.95,0.825 2.63,1.501 0.67,0.675 1.12,1.651 1.5,2.776 0.3,1.126 0.45,2.551 0.45,4.202 v 17.86 c -0.6,0.075 -1.28,0.15 -2.03,0.225 -0.68,0.075 -1.28,0.225 -1.88,0.375 v 3.527 h 12.98 v -3.527 c -1.12,-0.225 -2.25,-0.45 -3.45,-0.6 z" style="fill:#393939;fill-opacity:1;fill-rule:nonzero;stroke:none" id="path874"/>
                  </g>
                </g>
                <g id="g876">
                  <g id="g878">
                    <path d="m 356.77,25.491 v 0 3.452 c 0.67,0.15 1.42,0.3 2.17,0.375 0.75,0.151 1.58,0.226 2.33,0.301 v 26.939 c -0.75,0.075 -1.58,0.15 -2.33,0.225 -0.75,0.15 -1.5,0.225 -2.17,0.45 v 3.377 h 23.25 v -8.405 h -4.12 c -0.15,0.751 -0.23,1.426 -0.38,2.101 -0.07,0.676 -0.15,1.351 -0.22,1.876 h -8.41 v -10.58 h 6.76 c 0.07,0.6 0.15,1.201 0.22,1.726 0.15,0.525 0.23,1.05 0.45,1.501 h 3.53 V 38.248 h -3.53 c -0.22,0.45 -0.3,0.976 -0.45,1.576 -0.07,0.525 -0.15,1.126 -0.22,1.651 h -6.76 V 30.069 h 8.48 c 0.08,0.6 0.15,1.276 0.23,1.951 0.15,0.675 0.22,1.426 0.45,2.176 h 4.05 v -8.705 z" style="fill:#393939;fill-opacity:1;fill-rule:nonzero;stroke:none" id="path884"/>
                  </g>
                </g>
                <g id="g886">
                  <g id="g888">
                    <path d="m 406.28,31.645 v 0 c -0.68,-1.351 -1.58,-2.552 -2.7,-3.527 -1.13,-0.976 -2.55,-1.801 -4.2,-2.326 -1.65,-0.526 -3.45,-0.826 -5.56,-0.826 -2.77,0 -5.4,0.3 -7.65,0.901 v 8.854 h 4.13 c 0.15,-0.825 0.3,-1.576 0.37,-2.326 0.15,-0.75 0.23,-1.501 0.3,-2.101 0.45,-0.15 0.98,-0.225 1.5,-0.3 0.6,-0.075 1.13,-0.075 1.58,-0.075 1.05,0 1.95,0.075 2.85,0.3 0.83,0.225 1.58,0.525 2.25,0.975 0.6,0.376 1.13,0.976 1.5,1.651 0.38,0.676 0.53,1.501 0.53,2.477 0,1.2 -0.38,2.176 -1.13,2.926 -0.82,0.675 -1.8,1.351 -2.92,1.801 -1.13,0.525 -2.4,1.051 -3.76,1.501 -1.35,0.45 -2.62,1.125 -3.75,1.876 -1.2,0.75 -2.1,1.726 -2.92,2.851 -0.75,1.201 -1.13,2.702 -1.13,4.578 0,1.5 0.23,2.926 0.83,4.127 0.6,1.276 1.42,2.401 2.47,3.302 1.13,0.9 2.48,1.575 4.05,2.101 1.58,0.45 3.38,0.75 5.33,0.75 1.28,0 2.48,-0.075 3.6,-0.225 1.13,-0.075 2.25,-0.3 3.45,-0.525 v -8.48 h -4.12 c -0.23,0.751 -0.3,1.501 -0.45,2.251 -0.08,0.751 -0.15,1.426 -0.23,2.026 -0.22,0.076 -0.6,0.151 -1.12,0.151 -0.45,0.075 -0.9,0.075 -1.28,0.075 -2.25,0 -3.9,-0.451 -4.95,-1.351 -1.05,-0.901 -1.65,-2.101 -1.65,-3.527 0,-1.201 0.37,-2.176 1.2,-2.851 0.75,-0.751 1.72,-1.351 2.93,-1.876 1.12,-0.526 2.4,-1.051 3.75,-1.501 1.35,-0.525 2.55,-1.126 3.75,-1.876 1.12,-0.751 2.1,-1.726 2.85,-2.852 0.82,-1.125 1.2,-2.626 1.2,-4.502 0,-1.576 -0.3,-3.077 -0.9,-4.427 z" style="fill:#393939;fill-opacity:1;fill-rule:nonzero;stroke:none" id="path894"/>
                  </g>
                </g>
                <g id="g896">
                  <g id="g898">
                    <path d="m 427.96,49.504 v 0 c -0.3,0.9 -0.6,1.801 -0.83,2.701 -0.3,0.826 -0.52,1.726 -0.67,2.702 h -0.15 c -0.15,-0.901 -0.38,-1.801 -0.68,-2.702 -0.3,-0.975 -0.6,-1.876 -0.9,-2.851 l -3.82,-10.431 h 10.95 z m 3.22,-24.013 v 0 3.452 c 0.6,0.075 1.28,0.225 1.95,0.3 0.68,0.151 1.35,0.226 2.03,0.301 l -1.8,4.952 h -13.88 l -1.8,-4.952 c 0.67,-0.075 1.35,-0.15 2.02,-0.301 0.68,-0.075 1.36,-0.225 1.96,-0.3 v -3.452 h -12.68 v 3.452 c 0.45,0.075 0.97,0.225 1.5,0.3 0.52,0.075 1.05,0.151 1.5,0.226 l 11.25,31.141 h 6.75 l 11.4,-31.141 c 0.45,-0.075 0.98,-0.151 1.5,-0.226 0.53,-0.075 1.05,-0.225 1.5,-0.3 v -3.452 z" style="fill:#393939;fill-opacity:1;fill-rule:nonzero;stroke:none" id="path904"/>
                  </g>
                </g>
              </g>
            </g>
          </g>
        </g>
      </g>
    </g>
  </g>
</svg>